/* XPM */
static const char * center_xpm[] = {
"16 16 96 2",
"  	c None",
". 	c #74C768",
"+ 	c #73C667",
"@ 	c #72C566",
"# 	c #71C365",
"$ 	c #66B65C",
"% 	c #64B45B",
"& 	c #62B259",
"* 	c #60AF58",
"= 	c #5EAD56",
"- 	c #A9D8A1",
"; 	c #A7D69E",
"> 	c #67B45F",
", 	c #94C88D",
"' 	c #95C98E",
") 	c #5CAA54",
"! 	c #A5D69D",
"~ 	c #9BD192",
"{ 	c #87CA7E",
"] 	c #6EC063",
"^ 	c #62B159",
"/ 	c #7EBD76",
"( 	c #86C07E",
"_ 	c #90C58A",
": 	c #5AA852",
"< 	c #72C466",
"[ 	c #75C56B",
"} 	c #8CCC83",
"| 	c #A4D39B",
"1 	c #84C77B",
"2 	c #6BBC60",
"3 	c #61B159",
"4 	c #7DBD75",
"5 	c #93C78C",
"6 	c #73B66D",
"7 	c #59A752",
"8 	c #57A550",
"9 	c #70C365",
"0 	c #6DBF63",
"a 	c #89C980",
"b 	c #82C479",
"c 	c #69B95F",
"d 	c #5FAE57",
"e 	c #75B86E",
"f 	c #73B56C",
"g 	c #55A24E",
"h 	c #6ABB60",
"i 	c #68B95E",
"j 	c #5BA953",
"k 	c #5DAC55",
"l 	c #509C4A",
"m 	c #4E9948",
"n 	c #63B35A",
"o 	c #73B66C",
"p 	c #71B46A",
"q 	c #4F9B4A",
"r 	c #64A75F",
"s 	c #67A862",
"t 	c #4A9545",
"u 	c #479143",
"v 	c #61B058",
"w 	c #8AC084",
"x 	c #74B56E",
"y 	c #57A450",
"z 	c #4D9948",
"A 	c #61A55D",
"B 	c #79B375",
"C 	c #63A45F",
"D 	c #4C9447",
"E 	c #458F41",
"F 	c #5FAD56",
"G 	c #8AC083",
"H 	c #7AB773",
"I 	c #73B46C",
"J 	c #499445",
"K 	c #5EA05A",
"L 	c #64A65E",
"M 	c #70AD6C",
"N 	c #448D40",
"O 	c #5CAB54",
"P 	c #89BF83",
"Q 	c #83BB7D",
"R 	c #5BA654",
"S 	c #469042",
"T 	c #71AD6D",
"U 	c #73AE6E",
"V 	c #428C3F",
"W 	c #5AA853",
"X 	c #58A651",
"Y 	c #56A34F",
"Z 	c #54A14E",
"` 	c #529F4C",
" .	c #458E41",
"..	c #438D40",
"+.	c #428B3F",
"@.	c #418A3E",
". . + @ #             $ % & * = ",
". - ; #                 > , ' ) ",
"+ ! ~ { ]             ^ / ( _ : ",
"< [ } | 1 2         3 4 5 6 7 8 ",
"9   0 a b c         d e f 7   g ",
"      h i             j 7       ",
"                                ",
"                                ",
"                                ",
"                                ",
"      d k             l m       ",
"n   d o p 7         q r s t   u ",
"v d o w x y         z A B C D E ",
"F G H I y             J K L M N ",
"O P Q R                 S T U V ",
"W X Y Z `             S  ...+.@."};
