/* XPM */
static const char * connect_ro_xpm[] = {
"16 16 127 2",
"  	c None",
". 	c #BABABA",
"+ 	c #B8B8B8",
"@ 	c #B7B7B7",
"# 	c #B6B6B6",
"$ 	c #B4B4B4",
"% 	c #B3B3B3",
"& 	c #BBBBBB",
"* 	c #D0D0D0",
"= 	c #E8E8E8",
"- 	c #F3F3F3",
"; 	c #FDFDFD",
"> 	c #FCFCFC",
", 	c #EDEDED",
"' 	c #E0E0E0",
") 	c #C2C2C2",
"! 	c #ADADAD",
"~ 	c #E1E1E1",
"{ 	c #FEFEFE",
"] 	c #FFFFFF",
"^ 	c #FBFBFB",
"/ 	c #CFCFCF",
"( 	c #A9A9A9",
"_ 	c #B9B9B9",
": 	c #F8F8F8",
"< 	c #EAEAEA",
"[ 	c #A7A7A7",
"} 	c #F7F7F7",
"| 	c #E7E7E7",
"1 	c #EFEFEF",
"2 	c #F6F6F6",
"3 	c #FAFAFA",
"4 	c #F0F0F0",
"5 	c #DEDEDE",
"6 	c #C3C3C3",
"7 	c #E6E6E6",
"8 	c #A5A5A5",
"9 	c #B5B5B5",
"0 	c #EBEBEB",
"a 	c #D6D6D6",
"b 	c #D5D5D5",
"c 	c #D1D1D1",
"d 	c #BCBCBC",
"e 	c #C0C0C0",
"f 	c #E5E5E5",
"g 	c #A3A3A3",
"h 	c #F5F5F5",
"i 	c #EEEEEE",
"j 	c #E2E2E2",
"k 	c #CDCDCD",
"l 	c #E3E2E2",
"m 	c #C19C62",
"n 	c #E1AB46",
"o 	c #B2B2B2",
"p 	c #F4F4F4",
"q 	c #DDDDDD",
"r 	c #E3E3E3",
"s 	c #C9C9C9",
"t 	c #BDBDBD",
"u 	c #BFBFBF",
"v 	c #DEBE91",
"w 	c #ECC96F",
"x 	c #FBF3C9",
"y 	c #E7BA57",
"z 	c #B0B0B0",
"A 	c #D9D9D9",
"B 	c #DBDBDB",
"C 	c #C4C4C4",
"D 	c #C7AC83",
"E 	c #EAC15E",
"F 	c #FBF0A3",
"G 	c #F0D480",
"H 	c #ECC77E",
"I 	c #DDA350",
"J 	c #AEAEAE",
"K 	c #F2F2F2",
"L 	c #D8D8D8",
"M 	c #DCDCDC",
"N 	c #D1A862",
"O 	c #F9EEA9",
"P 	c #F8E67E",
"Q 	c #F8E89A",
"R 	c #F0D17E",
"S 	c #F6E280",
"T 	c #D9983F",
"U 	c #ACACAC",
"V 	c #D4D4D4",
"W 	c #D2D2D2",
"X 	c #C7A570",
"Y 	c #F4DD89",
"Z 	c #F6E06A",
"` 	c #F7E273",
" .	c #F6DF5F",
"..	c #F6DA55",
"+.	c #CD7F38",
"@.	c #C5B7A2",
"#.	c #DCB061",
"$.	c #E5BE63",
"%.	c #F2D95E",
"&.	c #F6DB4E",
"*.	c #F7DD5B",
"=.	c #F5D855",
"-.	c #CD802E",
";.	c #CECECE",
">.	c #EBD3AD",
",.	c #E0AE5D",
"'.	c #F6E299",
").	c #F5DC53",
"!.	c #F6D946",
"~.	c #CB9038",
"{.	c #CF8335",
"].	c #D28436",
"^.	c #A1A1A1",
"/.	c #9F9F9F",
"(.	c #ABABAB",
"_.	c #D6AA5A",
":.	c #F8E6A1",
"<.	c #F2D238",
"[.	c #F6D647",
"}.	c #CD943B",
"|.	c #DFAD4B",
"1.	c #F9E986",
"2.	c #F5D94D",
"3.	c #CC923A",
"4.	c #C98D34",
"5.	c #D59F45",
"6.	c #CB8D3A",
"      . + @ # $ %               ",
"  & * = - ; > , ' ) !           ",
". ~ { ] ] ] ] ] ] ^ / (         ",
"_ : { ] ] ] ] ] ] ^ < [         ",
"@ } | 1 2 ^ 3 4 5 6 7 8         ",
"9 2 0 5 a b c 6 d e f g         ",
"$ h i 7 j 7 ~ k ) ) l m n       ",
"o p < ~ q r 5 s t u v w x y     ",
"z - | q A ' B C + D E F G H I   ",
"J K j L b M L e % N O P Q R S T ",
"U 4 5 V W B a u z X Y Z `  ...+.",
"( 5 - B W B a @.#.$.%.&.*.=.-.  ",
"  8 ;., p h >.,.'.).!.~.{.].    ",
"    ^./.^.(._.:.<.[.}.          ",
"            |.1.2.3.            ",
"            4.5.6.              "};
