/* XPM */
static const char * coverage_off_xpm[] = {
"16 16 62 1",
" 	g None",
".	g #B1B1B1",
"+	g #AFAFAF",
"@	g #A9A9A9",
"#	g #A4A4A4",
"$	g #A8A8A8",
"%	g #ADADAD",
"&	g #B0B0B0",
"*	g #ECECEC",
"=	g #F4F4F4",
"-	g #F5F5F5",
";	g #F2F2F2",
">	g #EEEEEE",
",	g #ABABAB",
"'	g #F3F3F3",
")	g #AEAEAE",
"!	g #BFBFBF",
"~	g #C3C3C3",
"{	g #C1C1C1",
"]	g #B4B4B4",
"^	g #929292",
"/	g #979797",
"(	g #999999",
"_	g #F1F1F1",
":	g #A5A5A5",
"<	g #B2B2B2",
"[	g #BEBEBE",
"}	g #C2C2C2",
"|	g #BABABA",
"1	g #B6B6B6",
"2	g #B8B8B8",
"3	g #909090",
"4	g #9B9B9B",
"5	g #EFEFEF",
"6	g #B7B7B7",
"7	g #B3B3B3",
"8	g #878787",
"9	g #9E9E9E",
"0	g #B5B5B5",
"a	g #A7A7A7",
"b	g #ACACAC",
"c	g #858585",
"d	g #A0A0A0",
"e	g #AAAAAA",
"f	g #A1A1A1",
"g	g #8E8E8E",
"h	g #A3A3A3",
"i	g #EDEDED",
"j	g #9F9F9F",
"k	g #9C9C9C",
"l	g #898989",
"m	g #9D9D9D",
"n	g #A6A6A6",
"o	g #7D7D7D",
"p	g #7F7F7F",
"q	g #F0F0F0",
"r	g #959595",
"s	g #8A8A8A",
"t	g #D4D4D4",
"u	g #CDCDCD",
"v	g #C5C5C5",
"w	g #D2D2D2",
"                ",
" .+@#########$% ",
" &*=--------;>, ",
" @'.)@!~{]^/(_@ ",
" :-<%[}|12%345@ ",
" :-]@}67+%.895@ ",
" :=0a[<b@abcd>@ ",
" :'1e]<@:@fghi@ ",
" :;2.j#b@klmni@ ",
" #_|2)o8cpf,@i@ ",
" #q(/ro:#sl8ci@ ",
" h_tttuv<wttt*$ ",
" #_tttttttttt*$ ",
" @5'=''';;;;'>, ",
" %b@$$$$$$$$$,% ",
"                "};
