/* XPM */
static const char * coverage_xpm[] = {
"16 16 135 2",
"  	c None",
". 	c #A1B3CE",
"+ 	c #9FB1CF",
"@ 	c #95ABCD",
"# 	c #8EA7CD",
"$ 	c #8EA6CD",
"% 	c #93AACD",
"& 	c #9BAFCD",
"* 	c #9FB2CF",
"= 	c #EBECEC",
"- 	c #F3F4F4",
"; 	c #F4F5F7",
"> 	c #ECF3F7",
", 	c #E9EFF2",
"' 	c #97ADCE",
") 	c #F2F3F4",
"! 	c #95B4E3",
"~ 	c #8DB4D0",
"{ 	c #80B5A9",
"] 	c #A1CC93",
"^ 	c #AAD184",
"/ 	c #A6D082",
"( 	c #94C28B",
"_ 	c #699E9A",
": 	c #739DC3",
"< 	c #779DD6",
"[ 	c #EBF2F7",
"} 	c #94ABCF",
"| 	c #8FA7CD",
"1 	c #97B5E3",
"2 	c #87B7B8",
"3 	c #A1CB93",
"4 	c #A8D274",
"5 	c #9BCB67",
"6 	c #97C863",
"7 	c #98C96A",
"8 	c #8BBB83",
"9 	c #6A99A5",
"0 	c #7A9FD7",
"a 	c #E9F0F7",
"b 	c #F2F5F7",
"c 	c #99B7E4",
"d 	c #80B6A3",
"e 	c #A7D082",
"f 	c #98C965",
"g 	c #91C65D",
"h 	c #8BC259",
"i 	c #87C158",
"j 	c #8EC271",
"k 	c #5F928C",
"l 	c #7DA2D9",
"m 	c #E8F0F6",
"n 	c #94ABCE",
"o 	c #F0F5F7",
"p 	c #9BB8E5",
"q 	c #7FB3A1",
"r 	c #A0CD7D",
"s 	c #90C55E",
"t 	c #87C056",
"u 	c #81BE52",
"v 	c #7EBC52",
"w 	c #87BD6C",
"x 	c #5E9089",
"y 	c #81A4DA",
"z 	c #E7EFF5",
"A 	c #EFF4F7",
"B 	c #9DB9E6",
"C 	c #87B3B6",
"D 	c #93C288",
"E 	c #8FC563",
"F 	c #80BE53",
"G 	c #7ABA4F",
"H 	c #7FBD58",
"I 	c #7CB078",
"J 	c #6A96A3",
"K 	c #84A7DC",
"L 	c #E7EEF6",
"M 	c #EEF3F7",
"N 	c #9FBBE7",
"O 	c #93B6D1",
"P 	c #78AA9F",
"Q 	c #87B26F",
"R 	c #8ABD65",
"S 	c #87BB61",
"T 	c #7BAB6B",
"U 	c #649391",
"V 	c #7DA2C5",
"W 	c #88A9DD",
"X 	c #EDF2F7",
"Y 	c #A1BDE8",
"Z 	c #92B3D0",
"` 	c #76825E",
" .	c #868E44",
"..	c #878B41",
"+.	c #808356",
"@.	c #82A6C7",
"#.	c #8EAEE0",
"$.	c #8BACDE",
"%.	c #E6EEF6",
"&.	c #ECF1F7",
"*.	c #7AAA4E",
"=.	c #77A84C",
"-.	c #74A64A",
";.	c #9A7B35",
">.	c #D39F54",
",.	c #D19F54",
"'.	c #AF863F",
").	c #679A40",
"!.	c #65983E",
"~.	c #63963C",
"{.	c #8DA6CC",
"].	c #EDF1F7",
"^.	c #C2DCBF",
"/.	c #C5D3AF",
"(.	c #C9C89C",
"_.	c #D1AF6E",
":.	c #C3D9BA",
"<.	c #E6EDF6",
"[.	c #93AACE",
"}.	c #8EA6CC",
"|.	c #EDF1F6",
"1.	c #E6EDF7",
"2.	c #96ABCD",
"3.	c #EDEFF1",
"4.	c #F1F3F7",
"5.	c #F1F4F8",
"6.	c #F0F4F8",
"7.	c #F0F4F7",
"8.	c #F0F3F7",
"9.	c #EFF3F7",
"0.	c #EFF3F8",
"a.	c #EBEFF2",
"b.	c #97ADCF",
"c.	c #9CAFCE",
"d.	c #9AAECF",
"                                ",
"  . + @ # # # # # $ $ $ $ % &   ",
"  * = - ; ; ; ; ; ; ; ; > , '   ",
"  @ ) ! ~ { ] ^ / ( _ : < [ }   ",
"  | ; 1 2 3 4 5 6 7 8 9 0 a }   ",
"  | b c d e f g h i j k l m n   ",
"  | o p q r s t u v w x y z n   ",
"  | A B C D E F G H I J K L n   ",
"  | M N O P Q R S T U V W L n   ",
"  # X Y N Z `  ...+.@.#.$.%.n   ",
"  # &.*.=.-.;.>.,.'.).!.~.%.n   ",
"  {.].^.^.^./.(._.:.^.^.^.<.[.  ",
"  }.|.^.^.^.^.^.^.^.^.^.^.1.[.  ",
"  2.3.4.5.6.7.8.9.9.9.9.0.a.b.  ",
"  c.d.n [.[.[.[.[.[.[.[.[.' c.  ",
"                                "};
