/* XPM */
static const char * filter_xpm[] = {
"16 16 39 1",
" 	c None",
".	c #936100",
"+	c #976300",
"@	c #945E00",
"#	c #935D00",
"$	c #976400",
"%	c #936200",
"&	c #5D3E00",
"*	c #FFFFFF",
"=	c #FFF849",
"-	c #FFED6B",
";	c #FFEB45",
">	c #FFFF00",
",	c #FFEC00",
"'	c #FFD100",
")	c #FFC400",
"!	c #FFB506",
"~	c #FF9C1F",
"{	c #FF9E1E",
"]	c #FFA81A",
"^	c #FFA72A",
"/	c #FFEC74",
"(	c #FFF530",
"_	c #FFF700",
":	c #FFD200",
"<	c #FFC20A",
"[	c #FFB21A",
"}	c #FFA02D",
"|	c #FFAB27",
"1	c #FFEB72",
"2	c #FFD300",
"3	c #FFBD0F",
"4	c #FFAA23",
"5	c #FFA929",
"6	c #FFCE00",
"7	c #FFB814",
"8	c #FFC806",
"9	c #FFB21C",
"0	c #FFEE00",
".+@##########@$%",
"&**************&",
" &=-;>,')!~{]^& ",
"  &=/(_:<[}|^&  ",
"   &=1>2345^&   ",
"    &==67^^&    ",
"     &=89^&     ",
"      @08@      ",
"      @08@      ",
"      @08@      ",
"      @08@      ",
"      @08@      ",
"      &08@      ",
"       &8@      ",
"        &@      ",
"         &      "};
