/* XPM */
static const char * gpkgtable_xpm[] = {
"16 16 44 1",
" 	c None",
".	c #B93D77",
"+	c #B93E82",
"@	c #C62571",
"#	c #C82E77",
"$	c #B95491",
"%	c #CB347B",
"&	c #96282E",
"*	c #8A3E8C",
"=	c #D966A0",
"-	c #A03A44",
";	c #DB5491",
">	c #EA3A9A",
",	c #A64C50",
"'	c #AB5556",
")	c #DA639A",
"!	c #B74AA8",
"~	c #CE4BA7",
"{	c #D981AD",
"]	c #D98CB3",
"^	c #B98D67",
"/	c #CC6EB0",
"(	c #CB97B7",
"_	c #EBD6D6",
":	c #D79BBC",
"<	c #E785B2",
"[	c #D788B6",
"}	c #C94E78",
"|	c #CA778A",
"1	c #C78D8E",
"2	c #FA9BCA",
"3	c #D88AA3",
"4	c #F5BEDA",
"5	c #F9ADD6",
"6	c #EBB6D6",
"7	c #DFBBBA",
"8	c #F1C8DF",
"9	c #F4CEE2",
"0	c #E9BCD0",
"a	c #DBE8ED",
"b	c #E0EDF2",
"c	c #F8C8E7",
"d	c #EAF4FF",
"e	c #FFFFFF",
"eeeeeeeeeeeee   ",
"e$++........e   ",
"e:ddddddddd{e   ",
"e:444444444]e   ",
"e(d=ddddddd{e   ",
"e(444446_,%)b   ",
"e:d=dd7'0e8[*e  ",
"e:4449*ec|>^0-e ",
"e]d=d<5c3!~}||-e",
"e]444%5[/>~}'3-e",
"e:]{{#a/>>~'-3-e",
"eeeee13|^!>@*^-e",
"     e-c}&@@2@e ",
"      e-||/;@e  ",
"       e-@@@e   ",
"        eeee    "};
