/* XPM */
static const char * gpkgvtable_xpm[] = {
"16 16 144 2",
"  	c None",
". 	c #444444",
"+ 	c #464646",
"@ 	c #484848",
"# 	c #4A4A4A",
"$ 	c #4C4C4C",
"% 	c #C62571",
"& 	c #4C4D4D",
"* 	c #4D4D4D",
"= 	c #515151",
"- 	c #505861",
"; 	c #646464",
"> 	c #656565",
", 	c #676767",
"' 	c #BF2E73",
") 	c #C22E74",
"! 	c #6B6B6B",
"~ 	c #9B5E79",
"{ 	c #6F6F70",
"] 	c #C65586",
"^ 	c #717171",
"/ 	c #737373",
"( 	c #B65E84",
"_ 	c #77787A",
": 	c #2E2E96",
"< 	c #787878",
"[ 	c #747A82",
"} 	c #777A7D",
"| 	c #727B87",
"1 	c #CE4183",
"2 	c #787B7E",
"3 	c #8A3E8C",
"4 	c #4385CE",
"5 	c #8C428E",
"6 	c #8A428F",
"7 	c #4687CE",
"8 	c #7D8084",
"9 	c #828282",
"0 	c #424A9D",
"a 	c #3A44A0",
"b 	c #868686",
"c 	c #D36E99",
"d 	c #D46F9B",
"e 	c #454AA2",
"f 	c #414AA3",
"g 	c #DB5491",
"h 	c #D6729E",
"i 	c #8B8B8C",
"j 	c #EA3A9A",
"k 	c #8A8C8F",
"l 	c #D774A0",
"m 	c #4851A5",
"n 	c #8A8D91",
"o 	c #D775A1",
"p 	c #4B52A6",
"q 	c #919191",
"r 	c #D97AA4",
"s 	c #DA7AA3",
"t 	c #6058A8",
"u 	c #5556AB",
"v 	c #DC7DA5",
"w 	c #B74AA8",
"x 	c #DD7EA8",
"y 	c #5A5AAD",
"z 	c #CE4BA7",
"A 	c #DD80A9",
"B 	c #979797",
"C 	c #DB6A9E",
"D 	c #DF82AA",
"E 	c #999999",
"F 	c #E187AE",
"G 	c #909FB2",
"H 	c #9E9E9E",
"I 	c #9CA0A4",
"J 	c #E38CB1",
"K 	c #8D67B5",
"L 	c #E58FB4",
"M 	c #CC6EB0",
"N 	c #A4A7AC",
"O 	c #A4A8AC",
"P 	c #E794B7",
"Q 	c #967BB9",
"R 	c #ABABAB",
"S 	c #E998BA",
"T 	c #ADADAD",
"U 	c #DE9EBA",
"V 	c #EB9ABC",
"W 	c #AEAEAE",
"X 	c #EB9BBD",
"Y 	c #D788B6",
"Z 	c #4E78C9",
"` 	c #EB9DBE",
" .	c #EC9EBF",
"..	c #ED9FC0",
"+.	c #EEA1C1",
"@.	c #EFA2C1",
"#.	c #E993BB",
"$.	c #CA778A",
"%.	c #9791C6",
"&.	c #EAABCC",
"*.	c #E3AEC6",
"=.	c #BDBDBD",
"-.	c #E8AFCA",
";.	c #E9A6C3",
">.	c #EAB2CB",
",.	c #E6B4CA",
"'.	c #C2C2C2",
").	c #E9AAC6",
"!.	c #9BCAFA",
"~.	c #C4C4C4",
"{.	c #C5C5C5",
"].	c #EAAEC9",
"^.	c #9CA5D5",
"/.	c #8AA3D8",
"(.	c #CBCBCB",
"_.	c #D6C7CE",
":.	c #CECECE",
"<.	c #CFCFCF",
"[.	c #F9ADD6",
"}.	c #CED3D3",
"|.	c #C5D7ED",
"1.	c #C9D9ED",
"2.	c #DBC2DE",
"3.	c #D3DCEA",
"4.	c #F1C8DF",
"5.	c #DDDDDD",
"6.	c #D1DFF0",
"7.	c #BCD0E9",
"8.	c #D3D0E8",
"9.	c #DBE8ED",
"0.	c #EBEBEB",
"a.	c #EBF0F7",
"b.	c #C8E7F8",
"c.	c #EDF2F8",
"d.	c #F2F2F2",
"e.	c #EEF3F9",
"f.	c #EFF3F9",
"g.	c #F0F4FA",
"h.	c #F1F6FA",
"i.	c #F2F6FA",
"j.	c #F4F7FB",
"k.	c #F8F8F8",
"l.	c #FBFCFD",
"m.	c #FFFFFF",
"                                ",
"    @...` V &.Q t 1 C -.A v s   ",
"  +.j.j.j.8.y 7.m.4.Y 5 l.j.l   ",
"   .j.^.2.6 m.b.$.j K 7.a l.d   ",
"  X j.m.#.[.b./.w z Z $.$.f |.  ",
"  S j.;.1 [.Y M j z Z u /.a 6.  ",
"  P j.;.7 9.M j j z u a /.a 1.  ",
"  L i.).%./.$.K w j % 3 K p U   ",
"  J h.].m.e b.Z : % % !.4 a.]   ",
"  F g.>.*._.0 $.$.M g ' (.i ~   ",
"  D f.,.H q d.m % % ) 0.5.~.q $ ",
"  x f.G _ }.[ E {.<.R > & 8 ~./ ",
"  r e.| b }.k.@ =.:.'.T @ 3.~.9 ",
"  o c.I { }.2 . + = = + . } ~., ",
"  h c ( - n O W B ^ < B W N k * ",
"          # ; ! !     ! ! ; #   "};
