/* XPM */
static const char * gpkg_spatialidx_xpm[] = {
"16 16 42 1",
" 	c None",
".	c #102099",
"+	c #0A5EC5",
"@	c #4B55B3",
"#	c #106CD2",
"$	c #1F76D1",
"%	c #5772C7",
"&	c #2D86DA",
"*	c #7285CA",
"=	c #6C8AD2",
"-	c #5D95D8",
";	c #00E788",
">	c #45A2E9",
",	c #01CC96",
"'	c #00E68F",
")	c #00E596",
"!	c #01EC95",
"~	c #00E49C",
"{	c #01EAA1",
"]	c #02E9A7",
"^	c #A7ACDA",
"/	c #09F3AD",
"(	c #13EDB1",
"_	c #09EEB3",
":	c #0CF3B2",
"<	c #12F0B5",
"[	c #97BBE6",
"}	c #39DCB9",
"|	c #11F3B7",
"1	c #17F3BB",
"2	c #A9C9EB",
"3	c #27FCC9",
"4	c #ACCDEC",
"5	c #AACFEF",
"6	c #36FCCC",
"7	c #B1D2EE",
"8	c #C3D2ED",
"9	c #C9ECFA",
"0	c #75FFF1",
"a	c #E7F1F9",
"b	c #9AFFFB",
"c	c #FFFFFF",
"       cccccc   ",
"      c<<<11c   ",
"      c<b06c    ",
"    cc<b01ccc   ",
"   c..<00(]~,c  ",
"  c.a<__{3|).c  ",
"  c#a77}{:;7.c  ",
" c#987={/;2%^.c ",
" c#9&^$/'4%@^.c ",
" c#9-$!'5@@@^.c ",
" c.8=%;5>##.^#c ",
"  c.8=*@#++[#c  ",
"  c.^7@.#+[[#c  ",
"   c..^^[[##c   ",
"    cc.###cc    ",
"      cccc      "};
