/* XPM */
static const char * group_xpm[] = {
"16 16 117 2",
"  	c None",
". 	c #879DC3",
"+ 	c #7694C2",
"@ 	c #7795C3",
"# 	c #7896C3",
"$ 	c #7794C3",
"% 	c #7895C1",
"& 	c #879FC3",
"* 	c #EAEBEB",
"= 	c #F4F5F7",
"- 	c #E8EEF2",
"; 	c #7D99C2",
"> 	c #7895C3",
", 	c #9EB3CF",
"' 	c #89A1B4",
") 	c #7B9BB3",
"! 	c #7A9BB3",
"~ 	c #7898BB",
"{ 	c #7F9AC6",
"] 	c #859FC9",
"^ 	c #7894C3",
"/ 	c #718DB8",
"( 	c #7996C3",
"_ 	c #F0F5F7",
": 	c #91A7C9",
"< 	c #E4E8DD",
"[ 	c #EEF2EB",
"} 	c #EDF2EA",
"| 	c #EAF0E8",
"1 	c #EDF0F4",
"2 	c #F3F5F7",
"3 	c #EBEEF3",
"4 	c #EFF4F7",
"5 	c #809DC6",
"6 	c #ECF1E9",
"7 	c #9CB2C9",
"8 	c #88A0BA",
"9 	c #7897BB",
"0 	c #7998BC",
"a 	c #7A97C4",
"b 	c #7D99C6",
"c 	c #EEF3F7",
"d 	c #7D9AC5",
"e 	c #E6EFEC",
"f 	c #8CA4C5",
"g 	c #EAEBEA",
"h 	c #ECF1F7",
"i 	c #7D9AC6",
"j 	c #E8F0F5",
"k 	c #7C98C4",
"l 	c #CCDBE9",
"m 	c #90BC5E",
"n 	c #9FCA4A",
"o 	c #95C445",
"p 	c #77AE58",
"q 	c #B1C8DC",
"r 	c #E9F0F7",
"s 	c #7E9AC5",
"t 	c #7895C2",
"u 	c #EDF1F6",
"v 	c #7797B3",
"w 	c #E4ECE9",
"x 	c #C8D9E7",
"y 	c #9CC848",
"z 	c #A8CF5A",
"A 	c #9DCA53",
"B 	c #75B439",
"C 	c #9AB7D2",
"D 	c #E7EFF5",
"E 	c #7F9BC4",
"F 	c #7A95C0",
"G 	c #ECEEF0",
"H 	c #819DC7",
"I 	c #7B98C5",
"J 	c #BBCFE1",
"K 	c #8BC040",
"L 	c #99C74F",
"M 	c #8DC248",
"N 	c #63AA31",
"O 	c #89AACB",
"P 	c #E7EEF6",
"Q 	c #7E9AC4",
"R 	c #7D97C1",
"S 	c #E5EAF2",
"T 	c #7896BC",
"U 	c #AEC7DF",
"V 	c #6CA665",
"W 	c #6AAD39",
"X 	c #5EA82F",
"Y 	c #4E974E",
"Z 	c #89AED2",
"` 	c #9EBEDC",
" .	c #9BBDDE",
"..	c #CC9E4F",
"+.	c #A17831",
"@.	c #91B7DA",
"#.	c #8DB2D6",
"$.	c #E6EEF6",
"%.	c #7F9BC5",
"&.	c #70A247",
"*.	c #6B9D42",
"=.	c #66973C",
"-.	c #609136",
";.	c #5A8B31",
">.	c #55862C",
",.	c #E6EDF7",
"'.	c #F1F4F8",
").	c #F0F4F8",
"!.	c #F0F4F7",
"~.	c #EFF3F7",
"{.	c #EAEEF2",
"].	c #7E99C4",
"^.	c #708BB8",
"/.	c #7B97C3",
"(.	c #7D99C4",
"_.	c #7D98C4",
":.	c #728DB9",
"                                ",
"    . + @ # $ $ $ %             ",
"  & * = = = = = = - ;           ",
"  > = , ' ) ! ~ { ] ^ % /       ",
"  ( _ : < [ } | 1 2 3 - ;       ",
"  > 4 5 6 7 8 9 0 # a b $ % /   ",
"  > c d e f g = = = = = = - ;   ",
"  # h i j k = l m n o p q r s   ",
"  t u v w ( _ x y z A B C D E   ",
"  F G H h I 4 J K L M N O P Q   ",
"    R t S T c U V W X Y Z P Q   ",
"      F G # h `  ...+.@.#.$.%.  ",
"        R t u &.*.=.-.;.>.,.s   ",
"          F G '.).!.~.~.~.{.].  ",
"          ^.R /.(.].(._._.; :.  ",
"                                "};
