/* XPM */
static const char * layer_off_xpm[] = {
"16 16 92 2",
"  	c None",
". 	c #CDDFE9",
"+ 	c #C8DCE7",
"@ 	c #C0D7E3",
"# 	c #B7D1DF",
"$ 	c #B0CCDC",
"% 	c #ABC9DA",
"& 	c #D0E1EA",
"* 	c #D6E5ED",
"= 	c #E1ECF2",
"- 	c #E9F1F5",
"; 	c #EFF5F8",
"> 	c #F0F5F8",
", 	c #A9C8D9",
"' 	c #9DC1D4",
") 	c #C9DCE7",
"! 	c #DEEAF0",
"~ 	c #EDF3F7",
"{ 	c #E5EEF3",
"] 	c #E2ECF2",
"^ 	c #F4F8FA",
"/ 	c #90B8CE",
"( 	c #C5DAE5",
"_ 	c #F2F7F9",
": 	c #ECF2F6",
"< 	c #F7FAFB",
"[ 	c #FDFEFE",
"} 	c #F6F9FB",
"| 	c #E6EFF4",
"1 	c #A8C8D9",
"2 	c #9BBFD3",
"3 	c #BAD3E0",
"4 	c #D9E7EE",
"5 	c #87B2CA",
"6 	c #B2CEDD",
"7 	c #E4EEF3",
"8 	c #E0EBF1",
"9 	c #DAE8EF",
"0 	c #81AEC7",
"a 	c #E8F0F5",
"b 	c #BED5E2",
"c 	c #C3BDA7",
"d 	c #C5C0AC",
"e 	c #C4BFA9",
"f 	c #BBB49C",
"g 	c #A5C5D7",
"h 	c #C1D8E4",
"i 	c #82AFC8",
"j 	c #BBD4E1",
"k 	c #B6D1DF",
"l 	c #B0A98D",
"m 	c #B3CEDD",
"n 	c #ACCADA",
"o 	c #A19977",
"p 	c #9ABED2",
"q 	c #92B9CF",
"r 	c #A7C7D8",
"s 	c #CBDEE8",
"t 	c #B3AE91",
"u 	c #AECBDB",
"v 	c #A7A17F",
"w 	c #7AAAC4",
"x 	c #9EC1D4",
"y 	c #C4D9E5",
"z 	c #7BABC5",
"A 	c #93BACF",
"B 	c #A0C2D5",
"C 	c #A4C5D7",
"D 	c #76A8C3",
"E 	c #7EADC6",
"F 	c #958163",
"G 	c #9AA198",
"H 	c #869169",
"I 	c #7B8864",
"J 	c #717F81",
"K 	c #57432D",
"L 	c #7D7768",
"M 	c #A2A5A6",
"N 	c #A2A2A8",
"O 	c #98999D",
"P 	c #8B8F94",
"Q 	c #534B43",
"R 	c #776E5F",
"S 	c #BBBCBC",
"T 	c #EAEAEB",
"U 	c #CCCCCD",
"V 	c #9FA1A3",
"W 	c #554C3F",
"X 	c #555048",
"Y 	c #454544",
"Z 	c #41413F",
"` 	c #4A473F",
"          . + @ # $ % $         ",
"      & * = - ; > - * , '       ",
"    ) ! ; ~ - { ] = - ^ @ /     ",
"  ( * _ : _ < [ [ } | * } 1 2   ",
"  3 { : ~ } } } } ^ ; 4 & = 5   ",
"  6 ~ ] 7 - | { ] 8 9 ( 6 ; 0   ",
"  % = a # b c d e f 3 g h = i   ",
"  $ j } k l m m n 6 o p ~ 1 q   ",
"    r s ~ t m u r 6 v ! . w     ",
"      x s 1 m 6 6 6 p y z       ",
"        ' A x B ' C D E         ",
"          F G H I J K           ",
"          L M N O P Q           ",
"          R S T U V W           ",
"            X Y Z `             ",
"                                "};
