/* XPM */
static const char * linestrings_off_xpm[] = {
"16 16 3 1",
" 	c None",
".	c #5A5A5A",
"+	c #6E6E6E",
"                ",
"             .+ ",
"             .+ ",
"             .+ ",
"             .+ ",
"            .+  ",
"    .+      .+  ",
"   .+ .+    .+  ",
"   .+  .+   .+  ",
"  .+    .+ .+   ",
"  .+     .+.+   ",
" .+       .+    ",
" .+             ",
" .+             ",
" .+             ",
"                "};
