/* XPM */
static const char * map_add_xpm[] = {
"16 16 202 2",
"  	c None",
". 	c #4A5449",
"+ 	c #5D6A5C",
"@ 	c #606D5F",
"# 	c #616D5F",
"$ 	c #616D60",
"% 	c #626D60",
"& 	c #636D60",
"* 	c #5F6A5E",
"= 	c #4B544A",
"- 	c #FBFCFB",
"; 	c #FCFEFC",
"> 	c #F8FCF7",
", 	c #F8FCF8",
"' 	c #F9FCF7",
") 	c #EEF7EC",
"! 	c #EEF7ED",
"~ 	c #EDF6EF",
"{ 	c #ECF4EE",
"] 	c #EBF4EB",
"^ 	c #F9F99D",
"/ 	c #EDB46C",
"( 	c #FE7162",
"_ 	c #E9E780",
": 	c #F4F48C",
"< 	c #CDCD52",
"[ 	c #A4C2EC",
"} 	c #8AADDD",
"| 	c #97BAEB",
"1 	c #80A7DD",
"2 	c #83ABE2",
"3 	c #75A0DA",
"4 	c #D4EAD9",
"5 	c #646E61",
"6 	c #EAEA8A",
"7 	c #DEDD72",
"8 	c #F06556",
"9 	c #DF9F56",
"0 	c #E8E873",
"a 	c #C1C146",
"b 	c #A5BBBB",
"c 	c #83A4D0",
"d 	c #8EB0DE",
"e 	c #7A9ED1",
"f 	c #7AA2D6",
"g 	c #7198CF",
"h 	c #D5EBD7",
"i 	c #646E62",
"j 	c #F9F99F",
"k 	c #EAE985",
"l 	c #FAD384",
"m 	c #F05A52",
"n 	c #F7F287",
"o 	c #D7DA60",
"p 	c #CAD598",
"q 	c #9CB7E0",
"r 	c #A9C7ED",
"s 	c #94B3E0",
"t 	c #98B8E6",
"u 	c #8CAEDE",
"v 	c #D6ECD7",
"w 	c #646E63",
"x 	c #EAEA90",
"y 	c #DEDD78",
"z 	c #EAE981",
"A 	c #E26B4E",
"B 	c #EE9D63",
"C 	c #D7D75E",
"D 	c #C9CB5B",
"E 	c #97B0D4",
"F 	c #9FBAE2",
"G 	c #8FACD6",
"H 	c #91B0DB",
"I 	c #86A7D4",
"J 	c #D7EDD6",
"K 	c #F9F9A6",
"L 	c #EAE98B",
"M 	c #FAF899",
"N 	c #EBD378",
"O 	c #FF6B65",
"P 	c #EADC77",
"Q 	c #DEDF70",
"R 	c #B5C5C1",
"S 	c #BAD1F1",
"T 	c #A9C1E5",
"U 	c #AEC7EA",
"V 	c #A1BDE4",
"W 	c #646F63",
"X 	c #F1F19F",
"Y 	c #DFDD81",
"Z 	c #EBEA8A",
"` 	c #DEDE75",
" .	c #EE9165",
"..	c #E27E55",
"+.	c #DDDC68",
"@.	c #B7BF77",
"#.	c #B2C8E5",
"$.	c #A3BADA",
"%.	c #A6BCDE",
"&.	c #9FB7D9",
"*.	c #D8EDD6",
"=.	c #646F64",
"-.	c #FAFAAF",
";.	c #EBEB94",
">.	c #FAF9A2",
",.	c #F3ED95",
"'.	c #EB5F59",
").	c #E6D987",
"!.	c #D1D25C",
"~.	c #C9DBDC",
"{.	c #CDD4AC",
"].	c #D4DA97",
"^.	c #CED177",
"/.	c #DBEFD4",
"(.	c #656F64",
"_.	c #EDEBA4",
":.	c #DFDF8D",
"<.	c #EBEB97",
"[.	c #B7CF72",
"}.	c #99CA74",
"|.	c #B08356",
"1.	c #D77860",
"2.	c #B6C351",
"3.	c #9FB575",
"4.	c #729758",
"5.	c #668E4F",
"6.	c #608542",
"7.	c #95AF7E",
"8.	c #666F64",
"9.	c #636E61",
"0.	c #F9FCF8",
"a.	c #FBFBBC",
"b.	c #DFE79D",
"c.	c #BBE193",
"d.	c #97C977",
"e.	c #A9DA89",
"f.	c #98C675",
"g.	c #F37C71",
"h.	c #8A9E5E",
"i.	c #81AB61",
"j.	c #B4D495",
"k.	c #D0E6BA",
"l.	c #8FBB6A",
"m.	c #578F2D",
"n.	c #4C6D3B",
"o.	c #F8FBF7",
"p.	c #C4DE9B",
"q.	c #93C373",
"r.	c #9FCF80",
"s.	c #8FC16F",
"t.	c #9DCE7E",
"u.	c #8CBF6E",
"v.	c #BBA470",
"w.	c #618644",
"x.	c #B1D390",
"y.	c #B1D692",
"z.	c #FFFFFF",
"A.	c #8CBC65",
"B.	c #8FBC67",
"C.	c #386B1B",
"D.	c #AFDB96",
"E.	c #9AC97F",
"F.	c #AAD88F",
"G.	c #97C87A",
"H.	c #A9D68A",
"I.	c #ACA25F",
"J.	c #D78855",
"K.	c #4C7B31",
"L.	c #B6D49C",
"M.	c #B2D295",
"N.	c #376B19",
"O.	c #EFF8EE",
"P.	c #BCDBA4",
"Q.	c #A6CA8C",
"R.	c #B1D598",
"S.	c #A1C986",
"T.	c #C0AD74",
"U.	c #C68756",
"V.	c #B6C283",
"W.	c #3D6E1E",
"X.	c #8BBA62",
"Y.	c #87BA60",
"Z.	c #87B960",
"`.	c #396B1B",
" +	c #606A5F",
".+	c #ECF5EB",
"++	c #D7EDD4",
"@+	c #D7EED4",
"#+	c #D8EED4",
"$+	c #D8EED5",
"%+	c #D9EED5",
"&+	c #DAEFD6",
"*+	c #86AB74",
"=+	c #538C28",
"-+	c #8DBA64",
";+	c #4B6B39",
">+	c #4C544B",
",+	c #616A5F",
"'+	c #4D6D3C",
")+	c #396B1D",
"!+	c #4C6B3B",
"~+	c #4E554C",
". + @ @ @ @ # # # # $ % % & * = ",
"+ - ; > > > , ' , , ) ! ~ { ] * ",
"@ > ^ / ( _ : < [ } | 1 2 3 4 5 ",
"@ > 6 7 8 9 0 a b c d e f g h i ",
"# > j k l m n o p q r s t u v w ",
"# , x y z A B C D E F G H I J w ",
"# , K L M N O P Q R S T U V J W ",
"$ , X Y Z `  ...+.@.#.$.%.&.*.=.",
"% , -.;.>.Z ,.'.).!.~.{.].^./.(.",
"& , _.:.<.[.}.|.1.2.3.4.5.6.7.8.",
"9.0.a.b.c.d.e.f.g.h.i.j.k.l.m.n.",
"9.o.p.q.r.s.t.u.v.w.x.y.z.A.B.C.",
"5 ) D.E.F.G.H.I.J.K.L.z.z.z.M.N.",
"i O.P.Q.R.S.T.U.V.W.X.Y.z.Z.B.`.",
" +.+++@+#+$+%+%+&+*+=+-+M.-+=+;+",
">+,+W =.(.(.8.8.8.8.'+)+N.)+!+~+"};
