/* XPM */
static const char * map_image_xpm[] = {
"16 16 132 2",
"  	c None",
". 	c #BB8436",
"+ 	c #B98235",
"@ 	c #B78034",
"# 	c #B47E33",
"$ 	c #B07B31",
"% 	c #AD782F",
"& 	c #A9752D",
"* 	c #A5712B",
"= 	c #A16E2A",
"- 	c #9D6B28",
"; 	c #D6B45F",
"> 	c #D4B15C",
", 	c #D4B05B",
"' 	c #D3AF5A",
") 	c #D3AE5C",
"! 	c #D2AE5C",
"~ 	c #D1AB5C",
"{ 	c #D0AA5B",
"] 	c #CFA859",
"^ 	c #CDA457",
"/ 	c #CBA154",
"( 	c #C99F53",
"_ 	c #C99D53",
": 	c #C89D55",
"< 	c #996726",
"[ 	c #D4B15B",
"} 	c #C49544",
"| 	c #AE7D38",
"1 	c #C59750",
"2 	c #956424",
"3 	c #D3AE5A",
"4 	c #76C8FF",
"5 	c #75C7FF",
"6 	c #74C7FF",
"7 	c #73C6FF",
"8 	c #72C5FF",
"9 	c #71C4FF",
"0 	c #70C4FF",
"a 	c #EEDE70",
"b 	c #FAE78E",
"c 	c #FAE78C",
"d 	c #C3934E",
"e 	c #926122",
"f 	c #D1AD5A",
"g 	c #33BE95",
"h 	c #32BD94",
"i 	c #6DC8D8",
"j 	c #6EC3FF",
"k 	c #6DC2FF",
"l 	c #6BC1FF",
"m 	c #B5CC9F",
"n 	c #F8DE60",
"o 	c #F9E586",
"p 	c #C2904D",
"q 	c #8E5E20",
"r 	c #D1AB5A",
"s 	c #64CE74",
"t 	c #2BBE3F",
"u 	c #2BBD3F",
"v 	c #6BC2EF",
"w 	c #6AC0FF",
"x 	c #68BEFF",
"y 	c #67BDFF",
"z 	c #87C5E4",
"A 	c #AFC899",
"B 	c #EBD963",
"C 	c #C08E4D",
"D 	c #8B5C1F",
"E 	c #CFA95A",
"F 	c #60CB70",
"G 	c #5FCB6E",
"H 	c #28BA3C",
"I 	c #2DBA3E",
"J 	c #65C0D9",
"K 	c #64BBFF",
"L 	c #62BAFF",
"M 	c #60B9FF",
"N 	c #5FB8FF",
"O 	c #5DB7FF",
"P 	c #BF8B4C",
"Q 	c #895A1E",
"R 	c #CDA557",
"S 	c #5CC96B",
"T 	c #31BB3D",
"U 	c #74D550",
"V 	c #5ACA48",
"W 	c #5ACD25",
"X 	c #48C055",
"Y 	c #59BEA9",
"Z 	c #3CA8E4",
"` 	c #30A0FC",
" .	c #2E9CFF",
"..	c #BD874A",
"+.	c #87581D",
"@.	c #8BDD57",
"#.	c #89DC56",
"$.	c #A3E47A",
"%.	c #A2E478",
"&.	c #A0E376",
"*.	c #82DA50",
"=.	c #80DA4F",
"-.	c #7ED94D",
";.	c #7CD94C",
">.	c #7BD84B",
",.	c #BA8347",
"'.	c #9FE374",
").	c #9DE272",
"!.	c #9CE270",
"~.	c #9BE26E",
"{.	c #9AE16D",
"].	c #99E16B",
"^.	c #97E169",
"/.	c #96E068",
"(.	c #B98046",
"_.	c #C79A52",
":.	c #B5833B",
"<.	c #9B682D",
"[.	c #B87F46",
"}.	c #C79953",
"|.	c #C4944F",
"1.	c #C3914D",
"2.	c #C18F4D",
"3.	c #EAE9C1",
"4.	c #DFCD78",
"5.	c #DFCD76",
"6.	c #E7E1AC",
"7.	c #BB8449",
"8.	c #BA8147",
"9.	c #B87F45",
"0.	c #B87E45",
"a.	c #B98048",
"                                ",
". . . . . . . + @ # $ % & * = - ",
". ; > , ' ) ! ~ { ] ^ / ( _ : < ",
". [ } . . + @ # $ % & * = | 1 2 ",
". 3 . 4 5 6 7 8 9 0 a b c < d e ",
". f . g h i 0 j k l m n o 2 p q ",
". r + s t u v w x y z A B e C D ",
". E @ F G H I J K L M N O q P Q ",
"+ R # S T U V W X Y Z `  .D ..+.",
"@ / $ @.#.$.%.&.*.=.-.;.>.Q ,.+.",
"# _ % %.&.'.).!.~.{.].^./.+.(.+.",
"$ _.:.* = - < 2 e q D Q +.<.[.+.",
"% }.|.1.2.2.3.4.5.6.7.8.9.0.a.+.",
"& * = - < 2 e q D Q +.+.+.+.+.+.",
"                                ",
"                                "};
