/* XPM */
static const char * map_go_xpm[] = {
"16 16 208 2",
"  	c None",
". 	c #4A5449",
"+ 	c #5D6A5C",
"@ 	c #606D5F",
"# 	c #616D5F",
"$ 	c #616D60",
"% 	c #626D60",
"& 	c #636D60",
"* 	c #5F6A5E",
"= 	c #4B544A",
"- 	c #FBFCFB",
"; 	c #FCFEFC",
"> 	c #F8FCF7",
", 	c #F8FCF8",
"' 	c #F9FCF7",
") 	c #EEF7EC",
"! 	c #EEF7ED",
"~ 	c #EDF6EF",
"{ 	c #ECF4EE",
"] 	c #EBF4EB",
"^ 	c #F9F99D",
"/ 	c #EDB46C",
"( 	c #FE7162",
"_ 	c #E9E780",
": 	c #F4F48C",
"< 	c #CDCD52",
"[ 	c #A4C2EC",
"} 	c #8AADDD",
"| 	c #97BAEB",
"1 	c #80A7DD",
"2 	c #83ABE2",
"3 	c #75A0DA",
"4 	c #D4EAD9",
"5 	c #646E61",
"6 	c #EAEA8A",
"7 	c #DEDD72",
"8 	c #F06556",
"9 	c #DF9F56",
"0 	c #E8E873",
"a 	c #C1C146",
"b 	c #A5BBBB",
"c 	c #83A4D0",
"d 	c #8EB0DE",
"e 	c #7A9ED1",
"f 	c #7AA2D6",
"g 	c #7198CF",
"h 	c #D5EBD7",
"i 	c #646E62",
"j 	c #F9F99F",
"k 	c #EAE985",
"l 	c #FAD384",
"m 	c #F05A52",
"n 	c #F7F287",
"o 	c #D7DA60",
"p 	c #CAD598",
"q 	c #9CB7E0",
"r 	c #A9C7ED",
"s 	c #94B3E0",
"t 	c #98B8E6",
"u 	c #8CAEDE",
"v 	c #D6ECD7",
"w 	c #646E63",
"x 	c #EAEA90",
"y 	c #DEDD78",
"z 	c #EAE981",
"A 	c #E26B4E",
"B 	c #EE9D63",
"C 	c #D7D75E",
"D 	c #C9CB5B",
"E 	c #97B0D4",
"F 	c #9FBAE2",
"G 	c #8FACD6",
"H 	c #91B0DB",
"I 	c #86A7D4",
"J 	c #D7EDD6",
"K 	c #F9F9A6",
"L 	c #EAE98B",
"M 	c #FAF899",
"N 	c #EBD378",
"O 	c #FF6B65",
"P 	c #EADC77",
"Q 	c #DEDF70",
"R 	c #B5C5C1",
"S 	c #BAD1F1",
"T 	c #A9C1E5",
"U 	c #AEC7EA",
"V 	c #A1BDE4",
"W 	c #646F63",
"X 	c #F1F19F",
"Y 	c #DFDD81",
"Z 	c #EBEA8A",
"` 	c #DEDE75",
" .	c #EE9165",
"..	c #E27E55",
"+.	c #DDDC68",
"@.	c #B7BF77",
"#.	c #6EA43E",
"$.	c #659F31",
"%.	c #A3BBD8",
"&.	c #9FB7D9",
"*.	c #D8EDD6",
"=.	c #646F64",
"-.	c #FAFAAF",
";.	c #EBEB94",
">.	c #FAF9A2",
",.	c #F3ED95",
"'.	c #EB5F59",
").	c #E6D987",
"!.	c #D1D25C",
"~.	c #67A138",
"{.	c #81B35A",
"].	c #579828",
"^.	c #CACF74",
"/.	c #DBEFD4",
"(.	c #656F64",
"_.	c #EDEBA4",
":.	c #DFDF8D",
"<.	c #EBEB97",
"[.	c #B7CF72",
"}.	c #6FA53D",
"|.	c #6EA337",
"1.	c #68A133",
"2.	c #629D2F",
"3.	c #7CAF55",
"4.	c #AACB91",
"5.	c #74AB4F",
"6.	c #468F18",
"7.	c #D5E0C1",
"8.	c #666F64",
"9.	c #636E61",
"0.	c #F9FCF8",
"a.	c #FBFBBC",
"b.	c #DFE79D",
"c.	c #BBE193",
"d.	c #97C977",
"e.	c #6BA337",
"f.	c #B0CE96",
"g.	c #ADCD94",
"h.	c #A8CB90",
"i.	c #90BC74",
"j.	c #A1C78A",
"k.	c #68A546",
"l.	c #368809",
"m.	c #63705E",
"n.	c #F8FBF7",
"o.	c #C4DE9B",
"p.	c #93C373",
"q.	c #9FCF80",
"r.	c #8FC16F",
"s.	c #639F31",
"t.	c #8EBA6F",
"u.	c #89B86B",
"v.	c #85B666",
"w.	c #80B361",
"x.	c #82B567",
"y.	c #98C283",
"z.	c #5CA03C",
"A.	c #267F01",
"B.	c #AFDB96",
"C.	c #9AC97F",
"D.	c #AAD88F",
"E.	c #97C87A",
"F.	c #5B9B29",
"G.	c #A9CA90",
"H.	c #A5C88D",
"I.	c #A1C68A",
"J.	c #9EC588",
"K.	c #85B66A",
"L.	c #97C282",
"M.	c #66A548",
"N.	c #308612",
"O.	c #587151",
"P.	c #EFF8EE",
"Q.	c #BCDBA4",
"R.	c #A6CA8C",
"S.	c #B1D598",
"T.	c #A1C986",
"U.	c #519721",
"V.	c #49911B",
"W.	c #438F15",
"X.	c #3B8B0F",
"Y.	c #5E9F3A",
"Z.	c #96C180",
"`.	c #62A346",
" +	c #2B840D",
".+	c #B8D7AF",
"++	c #676F64",
"@+	c #606A5F",
"#+	c #ECF5EB",
"$+	c #D7EDD4",
"%+	c #D7EED4",
"&+	c #D8EED4",
"*+	c #D8EED5",
"=+	c #D9EED5",
"-+	c #DAEFD6",
";+	c #338709",
">+	c #5FA143",
",+	c #338717",
"'+	c #BEDDB7",
")+	c #D9EDD5",
"!+	c #636C61",
"~+	c #4C544B",
"{+	c #616A5F",
"]+	c #247C04",
"^+	c #1E7B03",
"/+	c #5C7057",
"(+	c #677064",
"_+	c #4E554C",
". + @ @ @ @ # # # # $ % % & * = ",
"+ - ; > > > , ' , , ) ! ~ { ] * ",
"@ > ^ / ( _ : < [ } | 1 2 3 4 5 ",
"@ > 6 7 8 9 0 a b c d e f g h i ",
"# > j k l m n o p q r s t u v w ",
"# , x y z A B C D E F G H I J w ",
"# , K L M N O P Q R S T U V J W ",
"$ , X Y Z `  ...+.@.#.$.%.&.*.=.",
"% , -.;.>.Z ,.'.).!.~.{.].^./.(.",
"& , _.:.<.[.}.|.1.2.3.4.5.6.7.8.",
"9.0.a.b.c.d.e.f.g.4.h.i.j.k.l.m.",
"9.n.o.p.q.r.s.g.t.u.v.w.x.y.z.A.",
"5 ) B.C.D.E.F.G.H.I.J.K.L.M.N.O.",
"i P.Q.R.S.T.U.V.W.X.Y.Z.`. +.+++",
"@+#+$+%+&+*+=+=+-+-+;+>+,+'+)+!+",
"~+{+W =.(.(.8.8.8.8.]+^+/+(+!+_+"};
