/* XPM */
static const char * map_edit_xpm[] = {
"16 16 213 2",
"  	c None",
". 	c #4A5449",
"+ 	c #5D6A5C",
"@ 	c #606D5F",
"# 	c #616D5F",
"$ 	c #616D60",
"% 	c #626D60",
"& 	c #636D60",
"* 	c #5F6A5E",
"= 	c #4B544A",
"- 	c #FBFCFB",
"; 	c #FCFEFC",
"> 	c #F8FCF7",
", 	c #F8FCF8",
"' 	c #F9FCF7",
") 	c #EEF7EC",
"! 	c #EEF7ED",
"~ 	c #EDF6EF",
"{ 	c #ECF4EE",
"] 	c #EBF4EB",
"^ 	c #F9F99D",
"/ 	c #EDB46C",
"( 	c #FE7162",
"_ 	c #E9E780",
": 	c #F4F48C",
"< 	c #CDCD52",
"[ 	c #A4C2EC",
"} 	c #8AADDD",
"| 	c #97BAEB",
"1 	c #80A7DD",
"2 	c #83ABE2",
"3 	c #75A0DA",
"4 	c #D4EAD9",
"5 	c #646E61",
"6 	c #EAEA8A",
"7 	c #DEDD72",
"8 	c #F06556",
"9 	c #DF9F56",
"0 	c #E8E873",
"a 	c #C1C146",
"b 	c #A5BBBB",
"c 	c #83A4D0",
"d 	c #8EB0DE",
"e 	c #7A9ED1",
"f 	c #7AA2D6",
"g 	c #7198CF",
"h 	c #D5EBD7",
"i 	c #646E62",
"j 	c #F9F99F",
"k 	c #EAE985",
"l 	c #FAD384",
"m 	c #F05A52",
"n 	c #F7F287",
"o 	c #D7DA60",
"p 	c #CAD598",
"q 	c #9CB7E0",
"r 	c #A9C7ED",
"s 	c #94B3E0",
"t 	c #98B8E6",
"u 	c #8CAEDE",
"v 	c #D6ECD7",
"w 	c #646E63",
"x 	c #EAEA90",
"y 	c #DEDD78",
"z 	c #EAE981",
"A 	c #E26B4E",
"B 	c #EE9D63",
"C 	c #D7D75E",
"D 	c #C9CB5B",
"E 	c #97B0D4",
"F 	c #9FBAE2",
"G 	c #A9ADA1",
"H 	c #D8A558",
"I 	c #DBB185",
"J 	c #D09D46",
"K 	c #8C7C4E",
"L 	c #F9F9A6",
"M 	c #EAE98B",
"N 	c #FAF899",
"O 	c #EBD378",
"P 	c #FF6B65",
"Q 	c #EADC77",
"R 	c #DEDF70",
"S 	c #B5C5C1",
"T 	c #C8C8A8",
"U 	c #E7BE77",
"V 	c #F0D2B4",
"W 	c #FFF3E5",
"X 	c #EFD2AC",
"Y 	c #BE894A",
"Z 	c #F1F19F",
"` 	c #DFDD81",
" .	c #EBEA8A",
"..	c #DEDE75",
"+.	c #EE9165",
"@.	c #E27E55",
"#.	c #DDDC68",
"$.	c #C5BC5B",
"%.	c #EDD580",
"&.	c #F9E3B2",
"*.	c #E7C08B",
"=.	c #F6D3AE",
"-.	c #FCE0C4",
";.	c #D09D66",
">.	c #FAFAAF",
",.	c #EBEB94",
"'.	c #FAF9A2",
").	c #F3ED95",
"!.	c #EB5F59",
"~.	c #E5CF6B",
"{.	c #EED47C",
"].	c #FDF6C4",
"^.	c #F6DD6C",
"/.	c #EDCA6D",
"(.	c #D7A363",
"_.	c #D3A166",
":.	c #747461",
"<.	c #EDEBA4",
"[.	c #DFDF8D",
"}.	c #EBEB97",
"|.	c #B7CF72",
"1.	c #99CA74",
"2.	c #BD9047",
"3.	c #EED379",
"4.	c #FDF7C7",
"5.	c #F5DC5F",
"6.	c #F7E25B",
"7.	c #F2D67A",
"8.	c #DF9943",
"9.	c #D9D4B1",
"0.	c #666F64",
"a.	c #636E61",
"b.	c #F9FCF8",
"c.	c #FBFBBC",
"d.	c #DFE79D",
"e.	c #BBE193",
"f.	c #97C977",
"g.	c #AEBD63",
"h.	c #E7CB77",
"i.	c #F5DC5E",
"j.	c #F7E15A",
"k.	c #F1D47B",
"l.	c #DD9543",
"m.	c #C39B58",
"n.	c #DBE9D0",
"o.	c #F8FBF7",
"p.	c #C4DE9B",
"q.	c #93C373",
"r.	c #9FCF80",
"s.	c #9CAD53",
"t.	c #D5B973",
"u.	c #FDF6C2",
"v.	c #F7DF63",
"w.	c #F8E25D",
"x.	c #F0D379",
"y.	c #DA9543",
"z.	c #A4B86C",
"A.	c #8FC374",
"B.	c #DAEFD7",
"C.	c #AFDB96",
"D.	c #9AC97F",
"E.	c #A5AD63",
"F.	c #D5B67A",
"G.	c #D1B790",
"H.	c #E4C955",
"I.	c #F5DF5B",
"J.	c #EDD078",
"K.	c #D99646",
"L.	c #A1C176",
"M.	c #A0D087",
"N.	c #9ACA80",
"O.	c #DAEED6",
"P.	c #EFF8EE",
"Q.	c #BCDBA4",
"R.	c #A6CA8C",
"S.	c #AA8943",
"T.	c #FFF2E0",
"U.	c #D89A54",
"V.	c #BE7A1A",
"W.	c #C59849",
"X.	c #BF863B",
"Y.	c #E77460",
"Z.	c #A3C581",
"`.	c #A6D08C",
" +	c #A0CA85",
".+	c #D7E9D2",
"++	c #676F64",
"@+	c #606A5F",
"#+	c #ECF5EB",
"$+	c #D7EDD4",
"%+	c #D7EED4",
"&+	c #84672E",
"*+	c #F9C794",
"=+	c #F9C991",
"-+	c #C98541",
";+	c #AC6B25",
">+	c #D4D9B7",
",+	c #ECE2D4",
"'+	c #D6E5CF",
")+	c #D9EDD5",
"!+	c #DCEFD8",
"~+	c #636C61",
"{+	c #4C544B",
"]+	c #616A5F",
"^+	c #646F63",
"/+	c #646F64",
"(+	c #563F14",
"_+	c #865F29",
":+	c #BC8849",
"<+	c #A7864A",
"[+	c #70705D",
"}+	c #677064",
"|+	c #4E554C",
". + @ @ @ @ # # # # $ % % & * = ",
"+ - ; > > > , ' , , ) ! ~ { ] * ",
"@ > ^ / ( _ : < [ } | 1 2 3 4 5 ",
"@ > 6 7 8 9 0 a b c d e f g h i ",
"# > j k l m n o p q r s t u v w ",
"# , x y z A B C D E F G H I J K ",
"# , L M N O P Q R S T U V W X Y ",
"$ , Z `  ...+.@.#.$.%.&.*.=.-.;.",
"% , >.,.'. .).!.~.{.].^./.(._.:.",
"& , <.[.}.|.1.2.3.4.5.6.7.8.9.0.",
"a.b.c.d.e.f.g.h.4.i.j.k.l.m.n.0.",
"a.o.p.q.r.s.t.u.v.w.x.y.z.A.B.0.",
"5 ) C.D.E.F.G.H.I.J.K.L.M.N.O.0.",
"i P.Q.R.S.T.U.V.W.X.Y.Z.`. +.+++",
"@+#+$+%+&+*+=+-+;+>+,+'+)+!+)+~+",
"{+]+^+/+(+_+:+<+[+0.0.++++}+~+|+"};
