/* XPM */
static const char * map_table_xpm[] = {
"16 16 131 2",
"  	c None",
". 	c #A2C1EF",
"+ 	c #9FC0ED",
"@ 	c #9DBEEB",
"# 	c #9ABCEB",
"$ 	c #96BAE9",
"% 	c #93B7E7",
"& 	c #90B5E6",
"* 	c #8CB2E4",
"= 	c #88AFE2",
"- 	c #84ACE0",
"; 	c #80A9DD",
"> 	c #7DA5DC",
", 	c #7AA3DA",
"' 	c #A1C1EE",
") 	c #F4F7FB",
"! 	c #74A0D7",
"~ 	c #9EBFEC",
"{ 	c #A5D59C",
"] 	c #A1D398",
"^ 	c #9DD094",
"/ 	c #98CE90",
"( 	c #93CB8B",
"_ 	c #8EC987",
": 	c #89C682",
"< 	c #84C37E",
"[ 	c #80C17A",
"} 	c #7CBE76",
"| 	c #6F9BD4",
"1 	c #9BBDEB",
"2 	c #FFFFFF",
"3 	c #6A97D1",
"4 	c #98BAE9",
"5 	c #A6C3E9",
"6 	c #AAC0DD",
"7 	c #B1B3B7",
"8 	c #A9BCD4",
"9 	c #6493CE",
"0 	c #94B7E7",
"a 	c #A9C4E8",
"b 	c #FEFEFE",
"c 	c #F2F2F2",
"d 	c #AEC3DD",
"e 	c #B6B6B6",
"f 	c #E1E1E1",
"g 	c #B3B3B3",
"h 	c #D8DCE1",
"i 	c #6C92C3",
"j 	c #8FB4E5",
"k 	c #F2F6FA",
"l 	c #AAC6E9",
"m 	c #ACC6E9",
"n 	c #ACC7EA",
"o 	c #B3C2D6",
"p 	c #C6C6C6",
"q 	c #C3C3C3",
"r 	c #C2C2C2",
"s 	c #DFDFDF",
"t 	c #FBFBFB",
"u 	c #B9B9B9",
"v 	c #AEAEAE",
"w 	c #AAAAAA",
"x 	c #929292",
"y 	c #8CB1E3",
"z 	c #F1F6FA",
"A 	c #AEC9EA",
"B 	c #B0C9EA",
"C 	c #BCBCBC",
"D 	c #FCFCFC",
"E 	c #FAFAFA",
"F 	c #F8F8F8",
"G 	c #F6F6F6",
"H 	c #F5F5F5",
"I 	c #F9F9F9",
"J 	c #8C8C8C",
"K 	c #87AEE1",
"L 	c #F0F4FA",
"M 	c #B2CBEA",
"N 	c #B3CCEA",
"O 	c #F3F3F3",
"P 	c #F0F0F0",
"Q 	c #EFEFEF",
"R 	c #F4F4F4",
"S 	c #868686",
"T 	c #82AADF",
"U 	c #EFF3F9",
"V 	c #B7CEEA",
"W 	c #BBD0EB",
"X 	c #AFAFAF",
"Y 	c #F1F1F1",
"Z 	c #EEEEEE",
"` 	c #ECECEC",
" .	c #818181",
"..	c #7EA8DD",
"+.	c #BAD0EB",
"@.	c #ABADB0",
"#.	c #EDEDED",
"$.	c #EBEBEB",
"%.	c #EAEAEA",
"&.	c #7B7B7B",
"*.	c #7AA4D9",
"=.	c #EEF3F9",
"-.	c #BED2EB",
";.	c #BFD3EB",
">.	c #B2B2B2",
",.	c #E9E9E9",
"'.	c #E8E8E8",
").	c #767676",
"!.	c #75A1D7",
"~.	c #EDF2F8",
"{.	c #EAF0F7",
"].	c #E6EDF6",
"^.	c #E2EAF4",
"/.	c #A7A8AA",
"(.	c #727272",
"_.	c #729ED6",
":.	c #6E99D3",
"<.	c #6896D1",
"[.	c #6392CE",
"}.	c #5E8ECB",
"|.	c #8394AA",
"1.	c #BBBBBB",
"2.	c #DDDDDD",
"3.	c #D0D0D0",
"4.	c #9F9F9F",
"5.	c #949494",
"6.	c #909090",
"7.	c #6E6E6E",
"8.	c #A0A0A0",
"9.	c #9C9C9C",
"0.	c #777777",
"  . + @ # $ % & * = - ; > ,     ",
"' ) ) ) ) ) ) ) ) ) ) ) ) !     ",
"~ ) { ] ^ / ( _ : < [ } ) |     ",
"1 ) 2 2 2 2 2 2 2 2 2 2 ) 3     ",
"4 ) 5 5 5 5 5 5 5 6 7 8 ) 9     ",
"0 ) 5 2 a b c c d e f g h i     ",
"j k l m n o p q r s t s u v w x ",
"y z A 2 B C c D E F G H H H I J ",
"K L M N N g D F G H O c P Q R S ",
"T U V 2 W X E H R c Y Q Z ` O  .",
"..U +.W W @.O O c P Q #.$.%.Y &.",
"*.=.-.2 ;.>.$.c Q Z ` $.,.'.P ).",
"!.~.{.].^./.Z R Y #.$.$.#.#.R (.",
"_.:.<.[.}.|.1.u e 2.Q 3.4.5.6.7.",
"                  8.3.9.        ",
"                    0.          "};
