/* XPM */
static const char * mapconfig_xpm[] = {
"16 16 167 2",
"  	c None",
". 	c #F0D08E",
"+ 	c #F6D78B",
"@ 	c #F5D580",
"# 	c #F2CA6E",
"$ 	c #EFBE5E",
"% 	c #E5AE55",
"& 	c #EDCA88",
"* 	c #F9E7B4",
"= 	c #FCF2D0",
"- 	c #FDF7DA",
"; 	c #FEF9DE",
"> 	c #FBEECC",
", 	c #F4D090",
"' 	c #E9AD4C",
") 	c #E8C37F",
"! 	c #F9E6B2",
"~ 	c #FEFBE5",
"{ 	c #FEFAE8",
"] 	c #FEFBE8",
"^ 	c #FDFAE3",
"/ 	c #FDFADA",
"( 	c #FFFDDE",
"_ 	c #F4D6A3",
": 	c #F1CC76",
"< 	c #FDF5D9",
"[ 	c #FEFBE0",
"} 	c #FEFBEB",
"| 	c #FEFEF3",
"1 	c #FFFEF6",
"2 	c #FEFEF4",
"3 	c #FEF9E3",
"4 	c #FBF4BB",
"5 	c #FDF5CB",
"6 	c #EDB25A",
"7 	c #F3CA6D",
"8 	c #FEFAE0",
"9 	c #FCF3C4",
"0 	c #FDF8D0",
"a 	c #FAEAC5",
"b 	c #FAE9C4",
"c 	c #F9E4BA",
"d 	c #FBF3BE",
"e 	c #F9EA8F",
"f 	c #FDF6B0",
"g 	c #EEB86C",
"h 	c #D9B434",
"i 	c #E1C25E",
"j 	c #E2C360",
"k 	c #EBBC5C",
"l 	c #FBF1D6",
"m 	c #FBF0A4",
"n 	c #F3CC64",
"o 	c #F1C26B",
"p 	c #F2C570",
"q 	c #F0BD63",
"r 	c #F2C35E",
"s 	c #F6DF62",
"t 	c #FCF3C5",
"u 	c #EBA956",
"v 	c #DAB336",
"w 	c #FEFEFD",
"x 	c #FFFFFE",
"y 	c #FFFEFE",
"z 	c #FFFEFD",
"A 	c #F3DCBC",
"B 	c #F2CA81",
"C 	c #FDFAD3",
"D 	c #EEAD4C",
"E 	c #F6E37A",
"F 	c #F8E873",
"G 	c #F9EE80",
"H 	c #EB9F2C",
"I 	c #FBECA3",
"J 	c #EFC89C",
"K 	c #DD9241",
"L 	c #DAAF35",
"M 	c #FEFCF7",
"N 	c #F8E48E",
"O 	c #F5DE91",
"P 	c #F5E09F",
"Q 	c #F6E1AC",
"R 	c #EBC386",
"S 	c #F3CF96",
"T 	c #F3BD7B",
"U 	c #F8E17A",
"V 	c #F9E57B",
"W 	c #FAE97F",
"X 	c #F2B75E",
"Y 	c #F1C69A",
"Z 	c #DF8E3C",
"` 	c #DAAA36",
" .	c #F6E098",
"..	c #F5DE97",
"+.	c #E9BE66",
"@.	c #DA9435",
"#.	c #DAA838",
"$.	c #FEFEFA",
"%.	c #E9BF72",
"&.	c #E3AD55",
"*.	c #E1A64B",
"=.	c #EDC98C",
"-.	c #FDF9E6",
";.	c #FEF9E7",
">.	c #EFECE6",
",.	c #EDECE9",
"'.	c #EBEAE1",
").	c #E9E8E6",
"!.	c #F2F2F2",
"~.	c #DAA438",
"{.	c #FEFCF0",
"].	c #FEFBED",
"^.	c #FEFAEB",
"/.	c #F8E696",
"(.	c #F8E38B",
"_.	c #E5D388",
":.	c #E8DBA0",
"<.	c #EDE1B1",
"[.	c #D9D1AA",
"}.	c #C4C2C0",
"|.	c #DA9F37",
"1.	c #FEFDFA",
"2.	c #F8E592",
"3.	c #F8E590",
"4.	c #F8E48F",
"5.	c #F8E48C",
"6.	c #F8E38A",
"7.	c #F7E285",
"8.	c #EFDA85",
"9.	c #CABC84",
"0.	c #BBB184",
"a.	c #A79E79",
"b.	c #E5E1D8",
"c.	c #DA9936",
"d.	c #FEFDF9",
"e.	c #F8E591",
"f.	c #F7E181",
"g.	c #F7E07B",
"h.	c #F6DE73",
"i.	c #F6DB69",
"j.	c #F4D85C",
"k.	c #F3D550",
"l.	c #FEFCF4",
"m.	c #DA9235",
"n.	c #F7E38A",
"o.	c #F7E07E",
"p.	c #F6DE77",
"q.	c #F6DD6F",
"r.	c #F5DB67",
"s.	c #F4D95C",
"t.	c #F3D347",
"u.	c #FEFCF6",
"v.	c #D98D33",
"w.	c #FBF3EA",
"x.	c #F8E5A6",
"y.	c #F8E5A7",
"z.	c #F8E5AA",
"A.	c #F7E5AC",
"B.	c #F7E5AF",
"C.	c #F7E5B1",
"D.	c #F7E5B2",
"E.	c #F7E4B3",
"F.	c #F7E4B7",
"G.	c #FBF3E9",
"H.	c #D8862C",
"I.	c #D8882E",
"J.	c #D8872E",
"                . + @ # $ %     ",
"            & * = - ; - > , '   ",
"          ) ! ~ ~ { ] ^ / ( _   ",
"          : < [ } | 1 2 3 4 5 6 ",
"          7 8 9 0 a b c d e f g ",
"h i j j j k l m n o p q r s t u ",
"v w x y z A B C D E F G H I J K ",
"L M N O P Q R S T U V W X Y Z   ",
"` M  ...+.@.@.@.@.@.@.@.@.@.    ",
"#.$.%.&.*.=.-.;.>.,.'.).!.@.    ",
"~.z {.].^.{ /.(._.:.<.[.}.@.    ",
"|.1.2.3.4.5.6.7.8.9.0.a.b.@.    ",
"c.d.e.N (.7.f.g.h.i.j.k.l.@.    ",
"m.$.4.n.7.o.p.q.r.s.k.t.u.@.    ",
"v.w.x.y.z.A.B.B.C.D.E.F.G.@.    ",
"H.I.J.I.I.I.I.I.I.I.I.J.I.H.    "};
