/* XPM */
static const char * pan_xpm[] = {
"16 16 9 1",
" 	c None",
".	c #FFFFFF",
"+	c #000000",
"@	c #FFFFFF",
"#	c #FFFFFF",
"$	c #FFFFFF",
"%	c #FFFFFF",
"&	c #FFFFFF",
"*	c #FFFFFF",
"                ",
"      +++       ",
"    +++.+       ",
"    +.+.+++     ",
"  +++.+.+.+     ",
"  +.+.+.+.+     ",
"  +.+.+.+.+     ",
"  +....++++++   ",
"  +...+.....+   ",
"  +....++++.+   ",
"  +.........+   ",
"   +.......++   ",
"    +.....+     ",
"    +.....+     ",
"    +++++++     ",
"                "};
