/* XPM */
static const char * points_off_xpm[] = {
"16 16 5 1",
" 	c None",
".	c #A0A0A0",
"+	c #808080",
"@	c #D0D0D=",
"#	c #C0C0C0",
"                ",
"  ..            ",
" .@+#      ..   ",
" .++#     .@+#  ",
"  ##      .++#  ",
"           ##   ",
"                ",
"       ..       ",
"      .@+#      ",
"      .++#      ",
"       ##       ",
"  ..            ",
" .@+#           ",
" .++#           ",
"  ##            ",
"                "};
