/* XPM */
static const char * polygons_off_xpm[] = {
"16 16 5 1",
" 	c None",
".	c #808080",
"+	c #D0D0D0",
"@	c #C0C0C0",
"#	c #E0E0E0",
"                ",
"         ...    ",
"    .....@@@.   ",
"   .@@@@@@@@.   ",
" ..@@+++++###.  ",
" .@@++++++###.  ",
" .@@@@++++##.   ",
"  ...@@+++##.   ",
"     .@@++#.    ",
"      .@@###.   ",
"  .   .@@####.  ",
" .+.  .@@###.   ",
" .@+. .@@##.    ",
"  ..   .@..     ",
"        .       ",
"                "};
