/* XPM */
static const char * postgres_schema_xpm[] = {
"16 16 82 1",
" 	g None",
".	g #80BABA",
"+	g #80B8B8",
"@	g #80B7B7",
"#	g #80B6B6",
"$	g #80B4B4",
"%	g #80B3B3",
"&	g #80BBBB",
"*	g #80D0D0",
"=	g #80E8E8",
"-	g #80F3F3",
";	g #80FDFD",
">	g #80FCFC",
",	g #80EDED",
"'	g #80E0E0",
")	g #80C2C2",
"!	g #80ADAD",
"~	g #80E1E1",
"{	g #80FEFE",
"]	g #80FFFF",
"^	g #80FBFB",
"/	g #80CFCF",
"(	g #80A9A9",
"_	g #80B9B9",
":	g #80F8F8",
"<	g #80EAEA",
"[	g #80A7A7",
"}	g #80F7F7",
"|	g #80E7E7",
"1	g #80EFEF",
"2	g #80F6F6",
"3	g #80FAFA",
"4	g #80F0F0",
"5	g #80DEDE",
"6	g #80C3C3",
"7	g #80E6E6",
"8	g #80A5A5",
"9	g #80B5B5",
"0	g #80EBEB",
"a	g #80D6D6",
"b	g #80D5D5",
"c	g #80D1D1",
"d	g #80BCBC",
"e	g #80C0C0",
"f	g #80E5E5",
"g	g #80A3A3",
"h	g #80F5F5",
"i	g #80EEEE",
"j	g #80E2E2",
"k	g #80CDCD",
"l	g #80E3E3",
"m	g #80A0A0",
"n	g #80B2B2",
"o	g #80F4F4",
"p	g #80DDDD",
"q	g #80C9C9",
"r	g #80BDBD",
"s	g #80BFBF",
"t	g #809E9E",
"u	g #80B0B0",
"v	g #80D9D9",
"w	g #80DBDB",
"x	g #80C4C4",
"y	g #809B9B",
"z	g #80AEAE",
"A	g #80F2F2",
"B	g #80D8D8",
"C	g #80DCDC",
"D	g #809696",
"E	g #80ACAC",
"F	g #80D4D4",
"G	g #80D2D2",
"H	g #809090",
"I	g #808B8B",
"J	g #80CECE",
"K	g #808A8A",
"L	g #80A1A1",
"M	g #809F9F",
"N	g #80ABAB",
"O	g #809595",
"P	g #808D8D",
"Q	g #808989",
"                ",
"     .+@#$%     ",
"   &*=-;>,')!   ",
"  .~{]]]]]]^/(  ",
"  _:{]]]]]]^<[  ",
"  @}|12^345678  ",
"  9205abc6defg  ",
"  $hi7j7~k))lm  ",
"  no<~pl5qrsjt  ",
"  u-|pv'wx+&~y  ",
"  zAjBbCBe%@'D  ",
"  E45FGwasu%5H  ",
"  (5-wGwaeq7xI  ",
"   8J,oho1j.K   ",
"    LMLN[OPQ    ",
"                "};
