/* XPM */
static const char * postgres_xpm[] = {
"16 16 60 1",
" 	c None",
".	c #EEF2F4",
"+	c #E6EBEE",
"@	c #B6C5C9",
"#	c #AFBFC8",
"$	c #91ABB7",
"%	c #39638A",
"&	c #346483",
"*	c #93A5B4",
"=	c #8FAAB4",
"-	c #396485",
";	c #6B8EA1",
">	c #93B5C4",
",	c #9AADBD",
"'	c #D5DFE5",
")	c #346391",
"!	c #35638C",
"~	c #45697F",
"{	c #4B708A",
"]	c #BCC9CF",
"^	c #7596AD",
"/	c #5D7D9E",
"(	c #2F628E",
"_	c #7794A5",
":	c #6184A2",
"<	c #9BB8C4",
"[	c #8CACC0",
"}	c #7D9DB2",
"|	c #8CA9BD",
"1	c #A9BEC7",
"2	c #C3D4DC",
"3	c #C2CFD3",
"4	c #95B2BC",
"5	c #608592",
"6	c #85A9BD",
"7	c #416589",
"8	c #7CA1B4",
"9	c #5D809C",
"0	c #6E96AA",
"a	c #577688",
"b	c #8DA6B8",
"c	c #466D89",
"d	c #3F6890",
"e	c #BAC5CB",
"f	c #D4DCDF",
"g	c #8BA4B6",
"h	c #ECEEEE",
"i	c #D9E1E3",
"j	c #8BA5AD",
"k	c #567698",
"l	c #8495A3",
"m	c #C1C6CA",
"n	c #2E688B",
"o	c #E7EDF1",
"p	c #5E81A3",
"q	c #4A7299",
"r	c #61839C",
"s	c #486B8A",
"t	c #597C96",
"u	c #D7E1E6",
"  ..   .+  @#.  ",
" $%&&*=-&-;>&-, ",
"'-)!~>&!!!!{$!-]",
"$)!!^/(!%!)!_:)<",
",!))[><}!)!|1<!2",
"3!)!>~^4!!%456! ",
".!!)[%!^7)->{8; ",
" 9)!>&!}%))0a$' ",
" b)!|c&>!!)d1e  ",
" f-!c]g4!!)!=h  ",
"  g!] ijk)(!1lm ",
"   2 'j@/)n%o   ",
"        p)(d    ",
"        :!(q    ",
"        _!)r    ",
"        3stu    "};
