/* XPM */
static const char * security_relaxed_xpm[] = {
"16 16 174 2",
"  	c None",
". 	c #A3A3A3",
"+ 	c #A0A0A0",
"@ 	c #9D9D9D",
"# 	c #9A9A9A",
"$ 	c #979797",
"% 	c #949494",
"& 	c #A2A2A2",
"* 	c #BCBCBC",
"= 	c #CACACA",
"- 	c #CCCCCC",
"; 	c #C2C2C2",
"> 	c #ADADAD",
", 	c #8C8C8C",
"' 	c #A1A1A1",
") 	c #C4C4C4",
"! 	c #BEBEBE",
"~ 	c #969696",
"{ 	c #939393",
"] 	c #AEAEAE",
"^ 	c #848484",
"/ 	c #BABABA",
"( 	c #BFBFBF",
"_ 	c #989898",
": 	c #878787",
"< 	c #A8A8A8",
"[ 	c #9E9E9E",
"} 	c #898989",
"| 	c #A9A9A9",
"1 	c #797979",
"2 	c #999999",
"3 	c #C6C6C6",
"4 	c #7D7D7D",
"5 	c #ABABAB",
"6 	c #767676",
"7 	c #E1C361",
"8 	c #A8A088",
"9 	c #919191",
"0 	c #8E8E8E",
"a 	c #DCB95A",
"b 	c #DFB855",
"c 	c #DEB551",
"d 	c #DDB14D",
"e 	c #DCAD49",
"f 	c #D7A846",
"g 	c #787878",
"h 	c #8D7E65",
"i 	c #D89931",
"j 	c #E1C260",
"k 	c #FCF3C9",
"l 	c #FDF3CB",
"m 	c #FEF6D4",
"n 	c #FFF6D7",
"o 	c #FFF4D8",
"p 	c #FFF8E0",
"q 	c #FFF8DF",
"r 	c #FFF5DA",
"s 	c #FCF1CD",
"t 	c #76A942",
"u 	c #659F31",
"v 	c #FAEBBD",
"w 	c #D6932B",
"x 	c #E0BF5C",
"y 	c #FCF3C8",
"z 	c #F9DF75",
"A 	c #FDE689",
"B 	c #FFE795",
"C 	c #FFE59A",
"D 	c #FFEEAA",
"E 	c #FFEDA8",
"F 	c #FFE399",
"G 	c #F9D574",
"H 	c #6EA334",
"I 	c #81B35A",
"J 	c #579828",
"K 	c #D58D24",
"L 	c #DFBB58",
"M 	c #FCF1C7",
"N 	c #F9DC6F",
"O 	c #EDBB56",
"P 	c #EFBD61",
"Q 	c #FFE79B",
"R 	c #6FA53D",
"S 	c #6FA337",
"T 	c #69A234",
"U 	c #639D2F",
"V 	c #7CAF55",
"W 	c #AACB91",
"X 	c #74AB4F",
"Y 	c #478F17",
"Z 	c #DEB753",
"` 	c #FCF0C6",
" .	c #F8D96A",
"..	c #FDE27C",
"+.	c #FFE890",
"@.	c #FFE999",
"#.	c #6BA337",
"$.	c #B0CE96",
"%.	c #ADCD94",
"&.	c #A8CB90",
"*.	c #90BC74",
"=.	c #A1C78A",
"-.	c #68A546",
";.	c #358707",
">.	c #DDB24E",
",.	c #FBEFC3",
"'.	c #F8D665",
").	c #ECB64C",
"!.	c #EFBD5A",
"~.	c #FFEB95",
"{.	c #639F31",
"].	c #8EBA6F",
"^.	c #89B86B",
"/.	c #85B666",
"(.	c #80B361",
"_.	c #82B567",
":.	c #98C283",
"<.	c #5CA03C",
"[.	c #257F00",
"}.	c #FBEEC1",
"|.	c #F7D35F",
"1.	c #FCDB6C",
"2.	c #FFE57F",
"3.	c #FFED8F",
"4.	c #5B9B29",
"5.	c #A9CA90",
"6.	c #A5C88D",
"7.	c #A1C68A",
"8.	c #9EC588",
"9.	c #85B66A",
"0.	c #97C282",
"a.	c #66A548",
"b.	c #217D00",
"c.	c #DBA843",
"d.	c #FBECBF",
"e.	c #F5CF59",
"f.	c #ECB041",
"g.	c #EFBA4E",
"h.	c #EFC25A",
"i.	c #529721",
"j.	c #4A911C",
"k.	c #448F15",
"l.	c #3C8B0F",
"m.	c #5E9F3A",
"n.	c #96C180",
"o.	c #62A346",
"p.	c #3F7C02",
"q.	c #DAA33D",
"r.	c #FAEBBC",
"s.	c #FCEBBC",
"t.	c #FEEEBF",
"u.	c #FFF4C6",
"v.	c #FFF8CE",
"w.	c #FFFAD3",
"x.	c #FFF8D0",
"y.	c #FFF2C7",
"z.	c #FCE9BA",
"A.	c #3B8B0F",
"B.	c #5FA143",
"C.	c #4A9023",
"D.	c #CB7105",
"E.	c #D99D36",
"F.	c #D7942C",
"G.	c #D69028",
"H.	c #D58C23",
"I.	c #D4881E",
"J.	c #D3841A",
"K.	c #D28015",
"L.	c #D17C11",
"M.	c #D1790E",
"N.	c #2F7C01",
"O.	c #1E7B03",
"P.	c #CC7004",
"Q.	c #CE6E01",
"        . + @ # $ %             ",
"      & * = - = ; > ,           ",
"    ' ) ! ' ~ { $ ] ] ^         ",
"    / ( _         : < [         ",
"  @ ) '             } | 1       ",
"  2 3 %             4 5 6       ",
"7 8 9 0 a b c d e f g 6 h i     ",
"j k l m n o p q r s t u v w     ",
"x y z A B C D E F G H I J K     ",
"L M N O P Q R S T U V W X Y     ",
"Z `  ...+.@.#.$.%.W &.*.=.-.;.  ",
">.,.'.).!.~.{.%.].^./.(._.:.<.[.",
"e }.|.1.2.3.4.5.6.7.8.9.0.a.b.  ",
"c.d.e.f.g.h.i.j.k.l.m.n.o.p.    ",
"q.r.s.t.u.v.w.x.y.z.A.B.C.D.    ",
"E.i F.G.H.I.J.K.L.M.N.O.P.Q.    "};
