/* XPM */
static const char * sql_erase_xpm[] = {
"16 16 197 2",
"  	c None",
". 	c #4D8BC8",
"+ 	c #4F8CC8",
"@ 	c #4F8DC8",
"# 	c #4F8CC9",
"$ 	c #4F8BC7",
"% 	c #4B89C5",
"& 	c #3B76C4",
"* 	c #4985C4",
"= 	c #ECF2F7",
"- 	c #EEF4F8",
"; 	c #EDF4F8",
"> 	c #EDF3F8",
", 	c #ECF2F8",
"' 	c #D7E6F2",
") 	c #7DB2E2",
"! 	c #6594DB",
"~ 	c #4B88C5",
"{ 	c #F2F6FA",
"] 	c #C7E0FA",
"^ 	c #C9E1FB",
"/ 	c #C9E2FB",
"( 	c #C8E0FB",
"_ 	c #C5DFF9",
": 	c #C1DBF8",
"< 	c #B8D6F4",
"[ 	c #F8FBFF",
"} 	c #B4D8F6",
"| 	c #7DB0E1",
"1 	c #6492DB",
"2 	c #4C89C6",
"3 	c #F1F5F9",
"4 	c #CDE3FC",
"5 	c #CEE3FB",
"6 	c #CDE3FB",
"7 	c #CBE2FB",
"8 	c #C8E0F9",
"9 	c #C2DCF8",
"0 	c #BAD6F5",
"a 	c #F8FBFD",
"b 	c #CDE6FC",
"c 	c #88C791",
"d 	c #84B6E0",
"e 	c #4279BF",
"f 	c #4B89C6",
"g 	c #CFE3FC",
"h 	c #D0E4FB",
"i 	c #CFE4FC",
"j 	c #CAE1FA",
"k 	c #C4DDF9",
"l 	c #BCD9F6",
"m 	c #DFE9F4",
"n 	c #7CBE76",
"o 	c #80BD7D",
"p 	c #457EC2",
"q 	c #F0F4F9",
"r 	c #D3E6FC",
"s 	c #D4E6FC",
"t 	c #D3E7FD",
"u 	c #D1E4FC",
"v 	c #B6DBD5",
"w 	c #84C788",
"x 	c #6ABB5F",
"y 	c #66B65C",
"z 	c #62B058",
"A 	c #7FBD76",
"B 	c #7BB972",
"C 	c #4F966B",
"D 	c #4A88C6",
"E 	c #EFF4F9",
"F 	c #D7E7FE",
"G 	c #D6E7FD",
"H 	c #D5E7FD",
"I 	c #BBDDD7",
"J 	c #81C681",
"K 	c #9BD093",
"L 	c #B2DAAB",
"M 	c #B0D9A9",
"N 	c #ADD8A6",
"O 	c #ABD7A3",
"P 	c #A7D5A0",
"Q 	c #71AF69",
"R 	c #478F40",
"S 	c #4988C6",
"T 	c #EDF4F9",
"U 	c #D8E8FE",
"V 	c #D7E8FE",
"W 	c #96CEA0",
"X 	c #95CC8C",
"Y 	c #B1D9AA",
"Z 	c #80BF77",
"` 	c #5BA751",
" .	c #56A14D",
"..	c #73B26B",
"+.	c #70AE68",
"@.	c #468A62",
"#.	c #4784C6",
"$.	c #ECF3F9",
"%.	c #D6E8FE",
"&.	c #74BD70",
"*.	c #63B259",
"=.	c #5EAC55",
"-.	c #75B579",
";.	c #CCE3FB",
">.	c #C7DFFA",
",.	c #60A062",
"'.	c #6CA46A",
").	c #4280C5",
"!.	c #4582C5",
"~.	c #EBF2F8",
"{.	c #D6E7FE",
"].	c #D5E6FD",
"^.	c #D3E5FD",
"/.	c #D0E3FA",
"(.	c #77AF81",
"_.	c #CBE1FB",
":.	c #6FA67A",
"<.	c #F0F6F9",
"[.	c #3F7CC5",
"}.	c #E8F1F8",
"|.	c #D5E5FE",
"1.	c #D3E5FC",
"2.	c #CFE3F6",
"3.	c #D0E3FB",
"4.	c #6BA771",
"5.	c #5E9E61",
"6.	c #C9E0FB",
"7.	c #C8E1FB",
"8.	c #669963",
"9.	c #33752D",
"0.	c #2E6F29",
"a.	c #2A6A25",
"b.	c #407CC4",
"c.	c #E6F0F7",
"d.	c #55B4F8",
"e.	c #56B4F7",
"f.	c #54B5F7",
"g.	c #53B4F8",
"h.	c #53B2F8",
"i.	c #4D9C73",
"j.	c #6AA962",
"k.	c #65A45D",
"l.	c #3B8035",
"m.	c #367A31",
"n.	c #599751",
"o.	c #8EC983",
"p.	c #64A15C",
"q.	c #256421",
"r.	c #3C78C1",
"s.	c #E3EDF7",
"t.	c #6EC2FD",
"u.	c #A0D8FF",
"v.	c #9ED7FF",
"w.	c #9BD6FF",
"x.	c #519852",
"y.	c #68A860",
"z.	c #97CD8D",
"A.	c #94CC8A",
"B.	c #91CA87",
"C.	c #8EC984",
"D.	c #8CC881",
"E.	c #68A760",
"F.	c #246320",
"G.	c #3871BF",
"H.	c #DFEBF5",
"I.	c #68BFFD",
"J.	c #67BDFC",
"K.	c #65BEFB",
"L.	c #64BEFC",
"M.	c #48936E",
"N.	c #5E9D56",
"O.	c #599952",
"P.	c #2F712A",
"Q.	c #2B6B26",
"R.	c #276623",
"S.	c #256245",
"T.	c #3369BC",
"U.	c #EAF1F8",
"V.	c #DFECF7",
"W.	c #DEEBF6",
"X.	c #DEEAF6",
"Y.	c #DCEAF6",
"Z.	c #EBF3FA",
"`.	c #609460",
" +	c #4F864E",
".+	c #F3F7FC",
"++	c #F4F8FC",
"@+	c #FDFEFE",
"#+	c #2A60B7",
"$+	c #3065BA",
"%+	c #3166BB",
"&+	c #3066BA",
"*+	c #2F65BA",
"=+	c #2E65B7",
"-+	c #2B6855",
";+	c #2E64B9",
">+	c #2C62B7",
"  . + + + + @ # $ % &           ",
"* = - ; > > > , = ' ) !         ",
"~ { ] ^ / ( _ : < [ } | 1       ",
"2 3 4 5 6 7 8 9 0 a b c d e     ",
"f 3 g h i 4 j k l m = n o p     ",
"f q r s t u v w x y z A B C     ",
"D E F G H I J K L M N O P Q R   ",
"S T U U V W X Y Z `  ...+.@.    ",
"#.$.%.V G &.*.=.-.;.>.,.'.).    ",
"!.~.{.G G G ].^./.(._.:.<.[.    ",
").}.|.^.^.1.2.3.4.5.6.7.8.9.0.a.",
"b.c.d.e.f.g.h.i.j.k.l.m.n.o.p.q.",
"r.s.t.u.v.w.x.y.z.A.B.C.D.E.F.  ",
"G.H.I.J.K.L.L.M.N.O.P.Q.R.S.    ",
"T.U.V.W.X.Y.Y.Z.`. +.+++@+#+    ",
"  $+%+&+&+&+$+*+=+-+;+;+>+      "};
