/* XPM */
static const char * topo_geo_xpm[] = {
"16 16 123 2",
"  	c None",
". 	c #C2C2C2",
"+ 	c #B3B3B3",
"@ 	c #A2A2A2",
"# 	c #A9A9A9",
"$ 	c #FFFFFF",
"% 	c #B1B1B1",
"& 	c #D6D6D6",
"* 	c #FDFDFD",
"= 	c #FCFCFC",
"- 	c #D3D3D3",
"; 	c #E0E0E0",
"> 	c #ACACAC",
", 	c #D1D1D1",
"' 	c #ABABAB",
") 	c #AEAEAE",
"! 	c #D5D5D5",
"~ 	c #C7C7C7",
"{ 	c #B5B5B5",
"] 	c #A3A3A3",
"^ 	c #FBFBFB",
"/ 	c #D2D2D2",
"( 	c #9D9D9D",
"_ 	c #D8D8D8",
": 	c #CDCDCD",
"< 	c #CECECE",
"[ 	c #CCCCCC",
"} 	c #C1C1C1",
"| 	c #BEBEBE",
"1 	c #9B9B9B",
"2 	c #F3F3F3",
"3 	c #E9E9E9",
"4 	c #DDDDDD",
"5 	c #DEDEDE",
"6 	c #DADADA",
"7 	c #C3C3C3",
"8 	c #D7D7D7",
"9 	c #BBBBBB",
"0 	c #CFCFCF",
"a 	c #9A9A9A",
"b 	c #AAAAAA",
"c 	c #F1F1F1",
"d 	c #EEEEEE",
"e 	c #E1E1E1",
"f 	c #CBCBCB",
"g 	c #6EA43C",
"h 	c #659F31",
"i 	c #BDBFBB",
"j 	c #C0C0C0",
"k 	c #999999",
"l 	c #F0F0F0",
"m 	c #ECECEC",
"n 	c #EAEAEA",
"o 	c #E4E4E4",
"p 	c #C4C4C4",
"q 	c #67A037",
"r 	c #81B35A",
"s 	c #579828",
"t 	c #BCBEBA",
"u 	c #989898",
"v 	c #A6A6A6",
"w 	c #F5F5F5",
"x 	c #F2F2F2",
"y 	c #E7E7E7",
"z 	c #DFDFDF",
"A 	c #6FA53D",
"B 	c #6EA338",
"C 	c #68A134",
"D 	c #629D30",
"E 	c #7CAF55",
"F 	c #AACB91",
"G 	c #74AB4F",
"H 	c #468F18",
"I 	c #C2C6C0",
"J 	c #959595",
"K 	c #A5A5A5",
"L 	c #E3E3E3",
"M 	c #6BA337",
"N 	c #B0CE96",
"O 	c #ADCD94",
"P 	c #A8CB90",
"Q 	c #90BC74",
"R 	c #A1C78A",
"S 	c #68A546",
"T 	c #368708",
"U 	c #8C9389",
"V 	c #A1A1A1",
"W 	c #E8E8E8",
"X 	c #EBEBEB",
"Y 	c #639F31",
"Z 	c #8EBA6F",
"` 	c #89B86B",
" .	c #85B666",
"..	c #80B361",
"+.	c #82B567",
"@.	c #98C283",
"#.	c #5CA03C",
"$.	c #257F00",
"%.	c #9E9E9E",
"&.	c #C5C5C5",
"*.	c #5B9B29",
"=.	c #A9CA90",
"-.	c #A5C88D",
";.	c #A1C68A",
">.	c #9EC588",
",.	c #85B66A",
"'.	c #97C282",
").	c #66A548",
"!.	c #217D00",
"~.	c #519721",
"{.	c #4A911C",
"].	c #438F16",
"^.	c #3B8B10",
"/.	c #5E9F3A",
"(.	c #96C180",
"_.	c #62A346",
":.	c #1F7D00",
"<.	c #979797",
"[.	c #969696",
"}.	c #2B8301",
"|.	c #5FA143",
"1.	c #1F7B00",
"2.	c #1E7B03",
"          . + @ @ + .           ",
"          # $ $ $ $ #           ",
"  . + @ @ % & * = - % @ @ + .   ",
"  # $ $ $ ; > , , ' ; $ $ $ #   ",
") ) ! * * ~ { ] ] { ~ = ^ / ) ( ",
"> _ : < , > $ $ $ $ > , [ } | 1 ",
"' 2 3 4 5 . 6 * * 6 7 8 9 9 0 a ",
"b 2 c d e ~ f , , [ g h i j < k ",
"# 2 l m n o 6 _ p 9 q r s t f u ",
"v w x y o z A B C D E F G H I J ",
"K | L c y 4 M N O F P Q R S T U ",
"    V } W X Y O Z `  ...+.@.#.$.",
"      %.( &.*.=.-.;.>.,.'.).!.  ",
"          1 ~.{.].^./.(._.:.    ",
"              <.[.  }.|.1.      ",
"                    !.2.        "};
