/* XPM */
static const char * topo_geo_off_xpm[] = {
"16 16 98 2",
"  	c None",
". 	c #5F5F5F",
"+ 	c #606060",
"@ 	c #636363",
"# 	c #676767",
"$ 	c #6D6D6D",
"% 	c #717171",
"& 	c #767676",
"* 	c #777777",
"= 	c #797979",
"- 	c #808080",
"; 	c #828282",
"> 	c #858585",
", 	c #898989",
"' 	c #8A8A8A",
") 	c #8B8B8B",
"! 	c #8C8C8C",
"~ 	c #8D8D8D",
"{ 	c #8E8E8E",
"] 	c #8F8F8F",
"^ 	c #909090",
"/ 	c #919191",
"( 	c #929292",
"_ 	c #959595",
": 	c #969696",
"< 	c #979797",
"[ 	c #989898",
"} 	c #999999",
"| 	c #9A9A9A",
"1 	c #9B9B9B",
"2 	c #9D9D9D",
"3 	c #9E9E9E",
"4 	c #A1A1A1",
"5 	c #A2A2A2",
"6 	c #A3A3A3",
"7 	c #A5A5A5",
"8 	c #A6A6A6",
"9 	c #A8A8A8",
"0 	c #A9A9A9",
"a 	c #AAAAAA",
"b 	c #ABABAB",
"c 	c #ACACAC",
"d 	c #ADADAD",
"e 	c #AEAEAE",
"f 	c #B1B1B1",
"g 	c #B3B3B3",
"h 	c #B4B4B4",
"i 	c #B5B5B5",
"j 	c #B8B8B8",
"k 	c #BABABA",
"l 	c #BBBBBB",
"m 	c #BCBCBC",
"n 	c #BDBDBD",
"o 	c #BEBEBE",
"p 	c #BFBFBF",
"q 	c #C0C0C0",
"r 	c #C1C1C1",
"s 	c #C2C2C2",
"t 	c #C3C3C3",
"u 	c #C4C4C4",
"v 	c #C5C5C5",
"w 	c #C7C7C7",
"x 	c #CBCBCB",
"y 	c #CCCCCC",
"z 	c #CDCDCD",
"A 	c #CECECE",
"B 	c #CFCFCF",
"C 	c #D1D1D1",
"D 	c #D2D2D2",
"E 	c #D3D3D3",
"F 	c #D5D5D5",
"G 	c #D6D6D6",
"H 	c #D7D7D7",
"I 	c #D8D8D8",
"J 	c #DADADA",
"K 	c #DDDDDD",
"L 	c #DEDEDE",
"M 	c #DFDFDF",
"N 	c #E0E0E0",
"O 	c #E1E1E1",
"P 	c #E3E3E3",
"Q 	c #E4E4E4",
"R 	c #E7E7E7",
"S 	c #E8E8E8",
"T 	c #E9E9E9",
"U 	c #DADADA",
"V 	c #DBDBDB",
"W 	c #DCDCDC",
"X 	c #DEDEDE",
"Y 	c #E0E0E0",
"Z 	c #E1E1E1",
"` 	c #E2E2E2",
" .	c #E3E3E3",
"..	c #E5E5E5",
"+.	c #EBEBEB",
"@.	c #ECECEC",
"#.	c #EDEDED",
"$.	c #EFEFEF",
"          s g 5 5 g s           ",
"          0 $.$.$.$.0           ",
"  s g 5 5 f G #.@.E f 5 5 g s   ",
"  0 $.$.$.N c C C b N $.$.$.0   ",
"e e F #.#.w i 6 6 i w @.+.D e 2 ",
"c I z A C c $.$.$.$.c C y r o 1 ",
"b  .T K L s J #.#.J t H l l B | ",
"a  .Z X O w x C C y / ) o q A } ",
"0  .Y W U Q J I u l ! 5 ; n x [ ",
"8 ..` R Q M ( ^ ~ , 3 q } * v _ ",
"7 o P Z R K ] u s q p d l / $ / ",
"    4 r S V ' s b 9 8 5 7 i ' @ ",
"      3 2 v > p m k j 8 h / +   ",
"          1 - = & % ' g { +     ",
"              < :   # ! .       ",
"                    + .         "};
