/* XPM */
static const char * topo_net_xpm[] = {
"16 16 104 2",
"  	c None",
". 	c #C2C2C2",
"+ 	c #B3B3B3",
"@ 	c #A2A2A2",
"# 	c #A9A9A9",
"$ 	c #FFFFFF",
"% 	c #B1B1B1",
"& 	c #D6D6D6",
"* 	c #FDFDFD",
"= 	c #FCFCFC",
"- 	c #D3D3D3",
"; 	c #E0E0E0",
"> 	c #ACACAC",
", 	c #D1D1D1",
"' 	c #ABABAB",
") 	c #AEAEAE",
"! 	c #D5D5D5",
"~ 	c #C7C7C7",
"{ 	c #B5B5B5",
"] 	c #A3A3A3",
"^ 	c #FBFBFB",
"/ 	c #D2D2D2",
"( 	c #9D9D9D",
"_ 	c #D8D8D8",
": 	c #CDCDCD",
"< 	c #CECECE",
"[ 	c #CCCCCC",
"} 	c #C1C1C1",
"| 	c #BEBEBE",
"1 	c #9B9B9B",
"2 	c #F3F3F3",
"3 	c #E9E9E9",
"4 	c #DDDDDD",
"5 	c #DEDEDE",
"6 	c #DADADA",
"7 	c #C3C3C3",
"8 	c #D7D7D7",
"9 	c #BBBBBB",
"0 	c #CFCFCF",
"a 	c #9A9A9A",
"b 	c #AAAAAA",
"c 	c #F1F1F1",
"d 	c #EEEEEE",
"e 	c #E1E1E1",
"f 	c #CBCBCB",
"g 	c #C0C0C0",
"h 	c #999999",
"i 	c #F0F0F0",
"j 	c #ECECEC",
"k 	c #EAEAEA",
"l 	c #E4E4E4",
"m 	c #C4C4C4",
"n 	c #989898",
"o 	c #A6A6A6",
"p 	c #F5F5F5",
"q 	c #F2F2F2",
"r 	c #E7E7E7",
"s 	c #8B8B8B",
"t 	c #9E9E9E",
"u 	c #848484",
"v 	c #AFAFAF",
"w 	c #BABABA",
"x 	c #858585",
"y 	c #898989",
"z 	c #919191",
"A 	c #A5A5A5",
"B 	c #E3E3E3",
"C 	c #EDEDED",
"D 	c #939393",
"E 	c #E8E8E8",
"F 	c #8C8C8C",
"G 	c #686868",
"H 	c #A1A1A1",
"I 	c #959595",
"J 	c #7A7A7A",
"K 	c #CED3D3",
"L 	c #7E7E7E",
"M 	c #4D4D4D",
"N 	c #656565",
"O 	c #929292",
"P 	c #797979",
"Q 	c #4C4C4C",
"R 	c #737373",
"S 	c #535353",
"T 	c #838383",
"U 	c #E5E5E5",
"V 	c #474747",
"W 	c #BDBDBD",
"X 	c #ADADAD",
"Y 	c #414141",
"Z 	c #828282",
"` 	c #666666",
" .	c #444444",
"..	c #464646",
"+.	c #515151",
"@.	c #525252",
"#.	c #676767",
"$.	c #8D8D8D",
"%.	c #979797",
"&.	c #717171",
"*.	c #787878",
"=.	c #4A4A4A",
"-.	c #646464",
";.	c #6B6B6B",
"          . + @ @ + .           ",
"          # $ $ $ $ #           ",
"  . + @ @ % & * = - % @ @ + .   ",
"  # $ $ $ ; > , , ' ; $ $ $ #   ",
") ) ! * * ~ { ] ] { ~ = ^ / ) ( ",
"> _ : < , > $ $ $ $ > , [ } | 1 ",
"' 2 3 4 5 . 6 * * 6 7 8 9 9 0 a ",
"b 2 c d e ~ f , , [ % 9 g g < h ",
"# 2 i j k l 6 _ m 9 | . 7 g f n ",
"o p q r 4 # s t u v w x t y ( z ",
"A | B C D z E 4 } y F _ 4 m z G ",
"    H I J K L M N O P N Q G m R ",
"      S T K U V W < . X Y   m Z ",
"        G K `  ...+.+...Y @.m #.",
"        M $.b ) %.&.*.%.) b $.M ",
"          =.-.;.;.    ;.;.-.=.  "};
