/* XPM */
static const char * vector_off_xpm[] = {
"16 16 91 1",
" 	g None",
".	g #B3B3B3",
"+	g #B1B1B1",
"@	g #B4B4B4",
"#	g #B2B2B2",
"$	g #D5D5D5",
"%	g #CDCDCD",
"&	g #ADADAD",
"*	g #ACACAC",
"=	g #CFCFCF",
"-	g #F8F8F8",
";	g #F6F6F6",
">	g #DEDEDE",
",	g #E4E4E4",
"'	g #C1C1C1",
")	g #A6A6A6",
"!	g #B5B5B5",
"~	g #C6C6C6",
"{	g #EEEEEE",
"]	g #FEFEFE",
"^	g #FDFDFD",
"/	g #B0B0B0",
"(	g #D8D8D8",
"_	g #E2E2E2",
":	g #D7D7D7",
"<	g #A0A0A0",
"[	g #B7B7B7",
"}	g #D9D9D9",
"|	g #EBEBEB",
"1	g #DFDFDF",
"2	g #CACACA",
"3	g #C4C4C4",
"4	g #B9B9B9",
"5	g #BBBBBB",
"6	g #D1D1D1",
"7	g #DDDDDD",
"8	g #CCCCCC",
"9	g #AAAAAA",
"0	g #999999",
"a	g #ECECEC",
"b	g #D3D3D3",
"c	g #EDEDED",
"d	g #F5F5F5",
"e	g #E0E0E0",
"f	g #E5E5E5",
"g	g #DCDCDC",
"h	g #979797",
"i	g #F7F7F7",
"j	g #F3F3F3",
"k	g #D2D2D2",
"l	g #EAEAEA",
"m	g #C0C0C0",
"n	g #D6D6D6",
"o	g #949494",
"p	g #F4F4F4",
"q	g #CBCBCB",
"r	g #B8B8B8",
"s	g #DBDBDB",
"t	g #BFBFBF",
"u	g #BDBDBD",
"v	g #929292",
"w	g #AEAEAE",
"x	g #F2F2F2",
"y	g #F0F0F0",
"z	g #C3C3C3",
"A	g #C5C5C5",
"B	g #BEBEBE",
"C	g #909090",
"D	g #E8E8E8",
"E	g #DADADA",
"F	g #AFAFAF",
"G	g #C9C9C9",
"H	g #8D8D8D",
"I	g #FAFAFA",
"J	g #EFEFEF",
"K	g #B6B6B6",
"L	g #A5A5A5",
"M	g #C8C8C8",
"N	g #8B8B8B",
"O	g #A7A7A7",
"P	g #E6E6E6",
"Q	g #8A8A8A",
"R	g #C2C2C2",
"S	g #E1E1E1",
"T	g #9E9E9E",
"U	g #9C9C9C",
"V	g #D0D0D0",
"W	g #8C8C8C",
"X	g #959595",
"Y	g #939393",
"Z	g #8F8F8F",
"       .+       ",
"     @#$%&*     ",
"    @=-;>,')    ",
"  !~{]^{/(_:!<  ",
"[!}|12345(67,890",
"@-ab%'.0cd|e:fgh",
"#ijf6kk!fl_(m[no",
"+;pja:qrs>~rtukv",
"w;pxya7zAB3B[!%C",
"*;jyclDE~zB[F*GH",
"9I;J|Df_AuK&L5MN",
"OtP;{P,_'[w@24hQ",
"  <R{xDS5@%ATQ  ",
"   U0~jJbV9WQ   ",
"     XY=5XN     ",
"       ZH       "};
