/* XPM */
static const char * virtgeojs_xpm[] = {
"16 16 190 2",
"  	c None",
". 	c #616EC4",
"+ 	c #A5BBE1",
"@ 	c #BACCEA",
"# 	c #C5BEE0",
"$ 	c #C5B4DA",
"% 	c #BDB0D7",
"& 	c #A6ACD7",
"* 	c #5D69BE",
"= 	c #5A66BA",
"- 	c #8CA2D8",
"; 	c #CDE8F5",
"> 	c #D4DAED",
", 	c #CED3ED",
"' 	c #CFAFDF",
") 	c #D6B5DE",
"! 	c #D4A2D4",
"~ 	c #CEA1D0",
"{ 	c #C4AAD0",
"] 	c #8791C9",
"^ 	c #535DAF",
"/ 	c #87A0D7",
"( 	c #C0DEF2",
"_ 	c #C7D6F2",
": 	c #D5D5EF",
"< 	c #D0CFE9",
"[ 	c #D5A6DB",
"} 	c #DCABDE",
"| 	c #DB90CD",
"1 	c #D78BC8",
"2 	c #C98EC1",
"3 	c #BDAFD5",
"4 	c #7A91C7",
"5 	c #4A53A3",
"6 	c #C0E2F3",
"7 	c #B5B4EF",
"8 	c #B5ACF0",
"9 	c #C1B7ED",
"0 	c #D4B7E3",
"a 	c #D99CD8",
"b 	c #DA95D3",
"c 	c #CD6DB5",
"d 	c #C76DB3",
"e 	c #B584CB",
"f 	c #949ADF",
"g 	c #AFCDE7",
"h 	c #464D9B",
"i 	c #98B5DE",
"j 	c #B5CCEB",
"k 	c #B1A7EF",
"l 	c #C9A9EE",
"m 	c #D1C9EA",
"n 	c #D58DCF",
"o 	c #D98BCB",
"p 	c #CD66B4",
"q 	c #BC67BC",
"r 	c #9A71D6",
"s 	c #8273DE",
"t 	c #7A71DC",
"u 	c #91A3D0",
"v 	c #88A4C8",
"w 	c #3D438F",
"x 	c #B3D2EC",
"y 	c #9BA2E2",
"z 	c #9D8DEA",
"A 	c #D4B7ED",
"B 	c #D0C7EA",
"C 	c #CF6EB9",
"D 	c #CC66B1",
"E 	c #CB75C9",
"F 	c #7667DB",
"G 	c #664DD9",
"H 	c #654DD7",
"I 	c #6C5DD3",
"J 	c #737EBB",
"K 	c #A5C2DB",
"L 	c #393E88",
"M 	c #BEDCF0",
"N 	c #8183D8",
"O 	c #776DDB",
"P 	c #BF9AE5",
"Q 	c #CCA7DF",
"R 	c #CA5DA8",
"S 	c #C26CBD",
"T 	c #B88BDA",
"U 	c #A660D8",
"V 	c #773FD1",
"W 	c #6A46D0",
"X 	c #5950BC",
"Y 	c #636CAB",
"Z 	c #B2CEE4",
"` 	c #353982",
" .	c #606DC3",
"..	c #BEDDEF",
"+.	c #737DD1",
"@.	c #906CD1",
"#.	c #BC9EE0",
"$.	c #C75EA7",
"%.	c #D35EB0",
"&.	c #C65399",
"*.	c #C66EBC",
"=.	c #AF7AD1",
"-.	c #B46DC4",
";.	c #AF5FA9",
">.	c #7B57A9",
",.	c #5A67A3",
"'.	c #B1CEE3",
").	c #31357E",
"!.	c #5E6ABF",
"~.	c #B0CFE9",
"{.	c #8390D4",
"].	c #BF8ADC",
"^.	c #BD7FC5",
"/.	c #9F5F88",
"(.	c #8B8288",
"_.	c #9E9E9E",
":.	c #857680",
"<.	c #AD4C80",
"[.	c #B04782",
"}.	c #847680",
"|.	c #838487",
"1.	c #8897A6",
"2.	c #303377",
"3.	c #92AFD7",
"4.	c #A0B4DE",
"5.	c #826FC3",
"6.	c #766489",
"7.	c #919191",
"8.	c #E8E8E8",
"9.	c #DDDDDD",
"0.	c #C1C1C1",
"a.	c #8A7A84",
"b.	c #8A6F7F",
"c.	c #D8D5D7",
"d.	c #C4C4C4",
"e.	c #41425E",
"f.	c #B5D3EA",
"g.	c #586091",
"h.	c #737377",
"i.	c #D3CED3",
"j.	c #78596D",
"k.	c #4D4B4C",
"l.	c #656565",
"m.	c #929292",
"n.	c #797979",
"o.	c #4B4B4C",
"p.	c #6E767E",
"q.	c #727273",
"r.	c #4E57A8",
"s.	c #768DC0",
"t.	c #616D7E",
"u.	c #828284",
"v.	c #C169A5",
"w.	c #464144",
"x.	c #BDBDBD",
"y.	c #CECECE",
"z.	c #C2C2C2",
"A.	c #ADADAD",
"B.	c #424345",
"C.	c #6679A5",
"D.	c #828282",
"E.	c #54617E",
"F.	c #6B6D6F",
"G.	c #725F6D",
"H.	c #444243",
"I.	c #464646",
"J.	c #515151",
"K.	c #424243",
"L.	c #494A5C",
"M.	c #676767",
"N.	c #393D79",
"O.	c #4A4B56",
"P.	c #8E8E91",
"Q.	c #ABA9AC",
"R.	c #AEAEAE",
"S.	c #979797",
"T.	c #717171",
"U.	c #787878",
"V.	c #A9A9AA",
"W.	c #8D8D8D",
"X.	c #4D4D4D",
"Y.	c #48484F",
"Z.	c #626265",
"`.	c #69696B",
" +	c #6A6A6B",
".+	c #3F416C",
"++	c #3C3E6F",
"@+	c #6B6B6B",
"#+	c #646464",
"$+	c #4A4A4A",
"          . . . . . .           ",
"      . . + @ # $ % & * =       ",
"    . - ; > , ' ) ! ~ { ] ^     ",
"  . / ( _ : < [ } | 1 2 3 4 5   ",
"  . 6 7 8 9 0 a b c d e f g h   ",
". i j k l m n o p q r s t u v w ",
". x y z A B C D E F G H I J K L ",
". M N O P Q R S T U V W X Y Z ` ",
" ...+.@.#.$.%.&.*.=.-.;.>.,.'.).",
"!.~.{.].^./.(._.:.<.[.}._.|.1.2.",
"= 3.4.5.6.7.8.9.0.a.b.c.9.d.7.e.",
"  ^ f.g.h.i.j.k.l.m.n.l.o.p.d.q.",
"  r.s.t.u.i.v.w.x.y.z.A.B.C.d.D.",
"    h E.F.i.G.H.I.J.J.I.K.L.d.M.",
"      N.O.P.Q.R.S.T.U.S.R.V.W.X.",
"          Y.Z.`. +.+++ +@+#+$+  "};
