/* XPM */
static const char * wms_xpm[] = {
"16 16 90 1",
" 	c None",
".	c #FFC19A",
"+	c #FFBE97",
"@	c #FFC195",
"#	c #FFBC90",
"$	c #FFB98B",
"%	c #FFB785",
"&	c #FFC9A8",
"*	c #FFD1B1",
"=	c #FFD1B3",
"-	c #FFD0B0",
";	c #FFC5A3",
">	c #FFC095",
",	c #FFAC75",
"'	c #FFC099",
")	c #FFC8A4",
"!	c #FFCEAC",
"~	c #FFC097",
"{	c #FFB688",
"]	c #FFB07D",
"^	c #FFAE77",
"/	c #FFB17E",
"(	c #FFBE8E",
"_	c #FFAF7A",
":	c #FF9B5B",
"<	c #FFC9A4",
"[	c #FF9E5E",
"}	c #FFAC77",
"|	c #FFA369",
"1	c #FF904A",
"2	c #FFBF92",
"3	c #FFC8A6",
"4	c #FFB787",
"5	c #FFAA70",
"6	c #FFA469",
"7	c #FFA262",
"8	c #FF934D",
"9	c #FFAA72",
"0	c #FF8A3F",
"a	c #FFBB8D",
"b	c #FFC49E",
"c	c #FFBE90",
"d	c #FFAB72",
"e	c #FFB583",
"f	c #FFA870",
"g	c #FFA66A",
"h	c #FFA871",
"i	c #FF9850",
"j	c #FF9C5C",
"k	c #FF8431",
"l	c #FFC6A4",
"m	c #FFA56B",
"n	c #FFB381",
"o	c #FFA366",
"p	c #FF8A3E",
"q	c #FF8233",
"r	c #FF7A27",
"s	c #FFAF7B",
"t	c #FFC6A3",
"u	c #FFA368",
"v	c #FF934B",
"w	c #FF8334",
"x	c #FF7B28",
"y	c #FFA56D",
"z	c #FF7A22",
"A	c #FFC49D",
"B	c #FFA365",
"C	c #FF9857",
"D	c #C4C4C4",
"E	c #BCBCBC",
"F	c #FF7F2D",
"G	c #FF7A24",
"H	c #FF7C21",
"I	c #FFA265",
"J	c #FFAD75",
"K	c #FF9A58",
"L	c #FFD0B9",
"M	c #FFDCBA",
"N	c #AAAAAA",
"O	c #FF8834",
"P	c #B3B3B3",
"Q	c #A2A2A2",
"R	c #FFEBCF",
"S	c #FFE9CB",
"T	c #999999",
"U	c #8F8F8F",
"V	c #878787",
"W	c #7F7F7F",
"X	c #787878",
"Y	c #717171",
"     .+@#$%     ",
"    +&*=-;>,    ",
"  ')!~{%]^/(_:  ",
" +<)$      [}|1 ",
" 234  ,567  890 ",
"abc  defghi  8jk",
"%l_ mn[  1op q6r",
"st5 7u    vw xyz",
"dAB Ci DE kF GgH",
"IJK   DLMN   HOH",
"      EPNQ      ",
"     EPRSTU     ",
"     PNQTUV     ",
"    PNQ  VWX    ",
"    N     XY    ",
"   N            "};
