/* XPM */
static const char * wms_off_xpm[] = {
"16 16 59 1",
" 	g None",
".	g #CBCBCB",
"+	g #C9C9C9",
"@	g #C7C7C7",
"#	g #C5C5C5",
"$	g #C3C3C3",
"%	g #D2D2D2",
"&	g #D8D8D8",
"*	g #D9D9D9",
"=	g #CFCFCF",
"-	g #CACACA",
";	g #BABABA",
">	g #D1D1D1",
",	g #D6D6D6",
"'	g #C2C2C2",
")	g #BDBDBD",
"!	g #BBBBBB",
"~	g #BEBEBE",
"{	g #C8C8C8",
"]	g #BCBCBC",
"^	g #ACACAC",
"/	g #AEAEAE",
"(	g #B2B2B2",
"_	g #A3A3A3",
":	g #B8B8B8",
"<	g #B3B3B3",
"[	g #B1B1B1",
"}	g #A5A5A5",
"|	g #9D9D9D",
"1	g #C6C6C6",
"2	g #CECECE",
"3	g #B9B9B9",
"4	g #C1C1C1",
"5	g #B6B6B6",
"6	g #B5B5B5",
"7	g #B7B7B7",
"8	g #A9A9A9",
"9	g #989898",
"0	g #D0D0D0",
"a	g #B4B4B4",
"b	g #C0C0C0",
"c	g #979797",
"d	g #909090",
"e	g #919191",
"f	g #C4C4C4",
"g	g #949494",
"h	g #ABABAB",
"i	g #E1E1E1",
"j	g #AAAAAA",
"k	g #9B9B9B",
"l	g #A2A2A2",
"m	g #EDEDED",
"n	g #ECECEC",
"o	g #999999",
"p	g #8F8F8F",
"q	g #878787",
"r	g #7F7F7F",
"s	g #787878",
"t	g #717171",
"     .+.@#$     ",
"    +%&*&=-;    ",
"  .>,-'$)!~{]^  ",
" +%>#      /;(_ ",
" +>$  ;:<[  }:| ",
"12{  345678  }^9",
"$0] ab/  _(| c<d",
"]0: [(    }9 ead",
"32( 88 f] 9g d6e",
"[;h   f&ij   eke",
"      ]<jl      ",
"     ]<mnop     ",
"     <jlopq     ",
"    <jl  qrs    ",
"    j     st    ",
"   j            "};
