/* XPM */
static const char * yellow_light_xpm[] = {
"32 32 4 1",
" 	c None",
".	c #B8A81C",
"@	c #EEDDAA",
"#	c #FFEECC",
"            ........            ",
"         ..............         ",
"        .....@@@@@@.....        ",
"      .....@@######@@.....      ",
"     ....@@##......##@@....     ",
"    ....@##..........##@@...    ",
"   ....@#..............##@...   ",
"   ....@#................#@..   ",
"  ....@#@................#@...  ",
" ....@#@..................#@... ",
" ....@#@..................#@... ",
" ...@#@....................#@.. ",
"....@#@....................#@...",
"...@#@............@@@@......#@..",
"...@#@...........@@@@@@.....#@..",
"...@#@..........@@@##@@@....#@..",
"...@#@..........@@####@@....#@..",
"...@#@..........@@####@@....#@..",
"...@#@..........@@@##@@@....#@..",
"....@#@..........@@@@@@....#@...",
" ...@#@...........@@@@.....#@.. ",
" ....@#@..................#@... ",
" ....@#@..................#@... ",
"  ....@#@................#@...  ",
"   ...@#@...............#@...   ",
"   ....@#@@...........@#@....   ",
"    ....@##@@......@@@#@....    ",
"     ....@@##@@@@@@##@@....     ",
"      .....@@######@@.....      ",
"        .....@@@@@@.....        ",
"         ..............         ",
"            ........            "};
