/* XPM */
static const char * zoom_in_xpm[] = {
"16 16 84 1",
" 	c None",
".	c #CEA75E",
"+	c #CEA761",
"@	c #CFA864",
"#	c #CEA662",
"$	c #CCA15D",
"%	c #C89C57",
"&	c #CFA861",
"*	c #CEA65E",
"=	c #C79A57",
"-	c #C79757",
";	c #CDA45B",
">	c #C39150",
",	c #C39153",
"'	c #CDA65E",
")	c #CDA55E",
"!	c #C18E4F",
"~	c #BD894C",
"{	c #CEA660",
"]	c #BE894D",
"^	c #CFA762",
"/	c #67B65C",
"(	c #61B057",
"_	c #5CA852",
":	c #BE8A4F",
"<	c #CDA561",
"[	c #5FAD56",
"}	c #A6D59D",
"|	c #539E4B",
"1	c #BD864C",
"2	c #C99F5B",
"3	c #63B259",
"4	c #5EAB54",
"5	c #76B76D",
"6	c #9ED195",
"7	c #6BAC63",
"8	c #448B3D",
"9	c #3E8337",
"0	c #C69956",
"a	c #C69655",
"b	c #9FD297",
"c	c #9ACF92",
"d	c #86C57D",
"e	c #90CA88",
"f	c #8BC683",
"g	c #357930",
"h	c #C49555",
"i	c #C18F4F",
"j	c #4D9645",
"k	c #65A75E",
"l	c #8BC785",
"m	c #5A9B53",
"n	c #33762E",
"o	c #2E6F29",
"p	c #C28F50",
"q	c #BE8A4D",
"r	c #82C27D",
"s	c #32742C",
"t	c #E3CC99",
"u	c #DEC48D",
"v	c #BC834F",
"w	c #BC854A",
"x	c #BC864C",
"y	c #BC844B",
"z	c #30712B",
"A	c #2A6B26",
"B	c #E8D5A3",
"C	c #E9D7A5",
"D	c #DABB80",
"E	c #AB643D",
"F	c #C18E58",
"G	c #DFC58F",
"H	c #E7D3A0",
"I	c #E0C793",
"J	c #C99B61",
"K	c #874828",
"L	c #BC8451",
"M	c #D7B57D",
"N	c #D6B57F",
"O	c #C39156",
"P	c #AB6737",
"Q	c #A55C33",
"R	c #B98048",
"S	c #AB6437",
"                ",
"   .+@#$%       ",
"  &*    =-      ",
" &;      >,     ",
"')        !~    ",
"{          ]    ",
"^      /(_ :    ",
"<      [}| 1    ",
"2    3456789    ",
"0a   _bcdefg    ",
" hi  |jklmno    ",
"  pq   9rstuv   ",
"   wx1ygzABCDE  ",
"         FGHIJK ",
"          LMNOP ",
"           QRS  "};
